<mxfile host="app.diagrams.net" modified="2024-01-01T16:50:42.508Z" agent="Mozilla/5.0 (Windows NT 10.0; Win64; x64) AppleWebKit/537.36 (KHTML, like Gecko) Chrome/120.0.0.0 Safari/537.36" etag="8KMViG8n5l20nTSj1sMU" version="22.1.16" type="device">
  <diagram name="Page-1" id="5f0bae14-7c28-e335-631c-24af17079c00">
    <mxGraphModel dx="1880" dy="1683" grid="1" gridSize="10" guides="1" tooltips="1" connect="1" arrows="1" fold="1" page="1" pageScale="1" pageWidth="1100" pageHeight="850" background="none" math="0" shadow="0">
      <root>
        <mxCell id="0" />
        <mxCell id="1" parent="0" />
        <mxCell id="39150e848f15840c-15" style="edgeStyle=orthogonalEdgeStyle;rounded=0;html=1;labelBackgroundColor=none;startArrow=none;startFill=0;startSize=8;endArrow=open;endFill=0;endSize=16;fontFamily=Verdana;fontSize=12;dashed=1;" parent="1" edge="1">
          <mxGeometry relative="1" as="geometry">
            <Array as="points">
              <mxPoint x="350" y="220" />
              <mxPoint x="215" y="220" />
            </Array>
            <mxPoint x="215" y="190" as="targetPoint" />
          </mxGeometry>
        </mxCell>
        <mxCell id="8VfH4JJ4uq1HrNAevUR7-10" value="" style="group" parent="1" vertex="1" connectable="0">
          <mxGeometry x="1220" y="-160" width="330" height="500" as="geometry" />
        </mxCell>
        <mxCell id="39150e848f15840c-1" value="" style="verticalAlign=top;align=left;spacingTop=8;spacingLeft=2;spacingRight=12;shape=cube;size=10;direction=south;fontStyle=4;html=1;rounded=0;shadow=0;comic=0;labelBackgroundColor=none;strokeWidth=1;fontFamily=Verdana;fontSize=12;fillColor=#F19C99;" parent="8VfH4JJ4uq1HrNAevUR7-10" vertex="1">
          <mxGeometry x="50" y="9.74" width="330" height="490.26" as="geometry" />
        </mxCell>
        <UserObject label="&amp;lt;&amp;lt;Device&amp;gt;&amp;gt;&lt;br&gt;User&#39;s PC" placeholders="1" name="Variable" id="8VfH4JJ4uq1HrNAevUR7-1">
          <mxCell style="text;html=1;strokeColor=none;fillColor=none;align=center;verticalAlign=middle;whiteSpace=wrap;overflow=hidden;" parent="8VfH4JJ4uq1HrNAevUR7-10" vertex="1">
            <mxGeometry x="170" y="9.738233082706769" width="80" height="52.85714285714286" as="geometry" />
          </mxCell>
        </UserObject>
        <mxCell id="8VfH4JJ4uq1HrNAevUR7-3" value="" style="verticalAlign=top;align=left;spacingTop=8;spacingLeft=2;spacingRight=12;shape=cube;size=10;direction=south;fontStyle=4;html=1;rounded=0;shadow=0;comic=0;labelBackgroundColor=none;strokeWidth=1;fontFamily=Verdana;fontSize=12" parent="8VfH4JJ4uq1HrNAevUR7-10" vertex="1">
          <mxGeometry x="75" y="69.99999999999999" width="280" height="400" as="geometry" />
        </mxCell>
        <UserObject label="&amp;lt;&amp;lt;OS&amp;gt;&amp;gt;&lt;br&gt;" placeholders="1" name="Variable" id="8VfH4JJ4uq1HrNAevUR7-4">
          <mxCell style="text;html=1;strokeColor=none;fillColor=none;align=center;verticalAlign=middle;whiteSpace=wrap;overflow=hidden;" parent="8VfH4JJ4uq1HrNAevUR7-10" vertex="1">
            <mxGeometry x="127.5" y="69.99552631578946" width="165" height="40.69026315789474" as="geometry" />
          </mxCell>
        </UserObject>
        <mxCell id="8VfH4JJ4uq1HrNAevUR7-5" value="" style="verticalAlign=top;align=left;spacingTop=8;spacingLeft=2;spacingRight=12;shape=cube;size=10;direction=south;fontStyle=4;html=1;rounded=0;shadow=0;comic=0;labelBackgroundColor=none;strokeWidth=1;fontFamily=Verdana;fontSize=12" parent="8VfH4JJ4uq1HrNAevUR7-10" vertex="1">
          <mxGeometry x="92.5" y="118.92999999999999" width="235" height="321.07" as="geometry" />
        </mxCell>
        <UserObject label="&amp;lt;&amp;lt;ExecutionEnvironment&amp;gt;&amp;gt;&lt;br&gt;WebBrowser" placeholders="1" name="Variable" id="8VfH4JJ4uq1HrNAevUR7-6">
          <mxCell style="text;html=1;strokeColor=none;fillColor=none;align=center;verticalAlign=middle;whiteSpace=wrap;overflow=hidden;" parent="8VfH4JJ4uq1HrNAevUR7-10" vertex="1">
            <mxGeometry x="127.5" y="136.32" width="165" height="33.68" as="geometry" />
          </mxCell>
        </UserObject>
        <mxCell id="8VfH4JJ4uq1HrNAevUR7-8" value="page.html" style="shape=note2;boundedLbl=1;whiteSpace=wrap;html=1;size=25;verticalAlign=top;align=center;spacingLeft=5;" parent="8VfH4JJ4uq1HrNAevUR7-10" vertex="1">
          <mxGeometry x="150" y="181.7" width="120" height="58.3" as="geometry" />
        </mxCell>
        <mxCell id="8VfH4JJ4uq1HrNAevUR7-9" value="&amp;lt;&amp;lt;artifact&amp;gt;&amp;gt;" style="resizeWidth=1;part=1;strokeColor=none;fillColor=none;align=left;spacingLeft=5;html=1;whiteSpace=wrap;" parent="8VfH4JJ4uq1HrNAevUR7-8" vertex="1">
          <mxGeometry width="120" height="25" relative="1" as="geometry" />
        </mxCell>
        <mxCell id="8VfH4JJ4uq1HrNAevUR7-74" value="style.css" style="shape=note2;boundedLbl=1;whiteSpace=wrap;html=1;size=25;verticalAlign=top;align=center;spacingLeft=5;" parent="8VfH4JJ4uq1HrNAevUR7-10" vertex="1">
          <mxGeometry x="150" y="260" width="120" height="58.3" as="geometry" />
        </mxCell>
        <mxCell id="8VfH4JJ4uq1HrNAevUR7-75" value="&amp;lt;&amp;lt;artifact&amp;gt;&amp;gt;" style="resizeWidth=1;part=1;strokeColor=none;fillColor=none;align=left;spacingLeft=5;html=1;whiteSpace=wrap;" parent="8VfH4JJ4uq1HrNAevUR7-74" vertex="1">
          <mxGeometry width="120" height="25" relative="1" as="geometry" />
        </mxCell>
        <mxCell id="8VfH4JJ4uq1HrNAevUR7-76" value="script.js" style="shape=note2;boundedLbl=1;whiteSpace=wrap;html=1;size=25;verticalAlign=top;align=center;spacingLeft=5;" parent="8VfH4JJ4uq1HrNAevUR7-10" vertex="1">
          <mxGeometry x="150" y="347" width="120" height="58.3" as="geometry" />
        </mxCell>
        <mxCell id="8VfH4JJ4uq1HrNAevUR7-77" value="&amp;lt;&amp;lt;artifact&amp;gt;&amp;gt;" style="resizeWidth=1;part=1;strokeColor=none;fillColor=none;align=left;spacingLeft=5;html=1;whiteSpace=wrap;" parent="8VfH4JJ4uq1HrNAevUR7-76" vertex="1">
          <mxGeometry width="120" height="25" relative="1" as="geometry" />
        </mxCell>
        <mxCell id="8VfH4JJ4uq1HrNAevUR7-31" value="" style="group" parent="1" vertex="1" connectable="0">
          <mxGeometry x="1780" y="40" width="190" height="80" as="geometry" />
        </mxCell>
        <mxCell id="8VfH4JJ4uq1HrNAevUR7-29" value="" style="verticalAlign=top;align=left;spacingTop=8;spacingLeft=2;spacingRight=12;shape=cube;size=10;direction=south;fontStyle=4;html=1;rounded=0;shadow=0;comic=0;labelBackgroundColor=none;strokeWidth=1;fontFamily=Verdana;fontSize=12" parent="8VfH4JJ4uq1HrNAevUR7-31" vertex="1">
          <mxGeometry width="190" height="80" as="geometry" />
        </mxCell>
        <UserObject label="&amp;lt;&amp;lt;LoadBalancer&amp;gt;&amp;gt;" placeholders="1" name="Variable" id="8VfH4JJ4uq1HrNAevUR7-30">
          <mxCell style="text;html=1;strokeColor=none;fillColor=none;align=center;verticalAlign=middle;whiteSpace=wrap;overflow=hidden;" parent="8VfH4JJ4uq1HrNAevUR7-31" vertex="1">
            <mxGeometry x="12.5" y="32.5" width="165" height="15" as="geometry" />
          </mxCell>
        </UserObject>
        <mxCell id="8VfH4JJ4uq1HrNAevUR7-65" value="" style="endArrow=none;html=1;rounded=0;align=center;verticalAlign=top;endFill=0;labelBackgroundColor=none;exitX=0;exitY=0;exitDx=240.13000000000002;exitDy=0;exitPerimeter=0;entryX=0;entryY=0;entryDx=45;entryDy=190;entryPerimeter=0;" parent="1" source="39150e848f15840c-1" target="8VfH4JJ4uq1HrNAevUR7-29" edge="1">
          <mxGeometry relative="1" as="geometry">
            <mxPoint x="1240" y="-280" as="sourcePoint" />
            <mxPoint x="1030" y="-325" as="targetPoint" />
          </mxGeometry>
        </mxCell>
        <mxCell id="8VfH4JJ4uq1HrNAevUR7-68" value="&amp;lt;&amp;lt;Protocol&amp;gt;&amp;gt;&lt;br&gt;&lt;div style=&quot;text-align: center;&quot;&gt;&lt;span style=&quot;background-color: initial;&quot;&gt;HTTPS&lt;/span&gt;&lt;/div&gt;" style="resizable=0;html=1;align=right;verticalAlign=bottom;labelBackgroundColor=none;" parent="8VfH4JJ4uq1HrNAevUR7-65" connectable="0" vertex="1">
          <mxGeometry x="1" relative="1" as="geometry">
            <mxPoint x="-50" y="-15" as="offset" />
          </mxGeometry>
        </mxCell>
        <mxCell id="8VfH4JJ4uq1HrNAevUR7-78" value="" style="group" parent="1" vertex="1" connectable="0">
          <mxGeometry x="2160" y="-130" width="330" height="460" as="geometry" />
        </mxCell>
        <mxCell id="8VfH4JJ4uq1HrNAevUR7-79" value="" style="verticalAlign=top;align=left;spacingTop=8;spacingLeft=2;spacingRight=12;shape=cube;size=10;direction=south;fontStyle=4;html=1;rounded=0;shadow=0;comic=0;labelBackgroundColor=none;strokeWidth=1;fontFamily=Verdana;fontSize=12;fillColor=#FFE599;" parent="8VfH4JJ4uq1HrNAevUR7-78" vertex="1">
          <mxGeometry y="21.35" width="330" height="358.65" as="geometry" />
        </mxCell>
        <UserObject label="&amp;lt;&amp;lt;Device&amp;gt;&amp;gt;&lt;br&gt;WebServer" placeholders="1" name="Variable" id="8VfH4JJ4uq1HrNAevUR7-80">
          <mxCell style="text;html=1;strokeColor=none;fillColor=none;align=center;verticalAlign=middle;whiteSpace=wrap;overflow=hidden;" parent="8VfH4JJ4uq1HrNAevUR7-78" vertex="1">
            <mxGeometry x="120" y="22.94872999164578" width="80" height="48.62857142857144" as="geometry" />
          </mxCell>
        </UserObject>
        <mxCell id="8VfH4JJ4uq1HrNAevUR7-81" value="" style="verticalAlign=top;align=left;spacingTop=8;spacingLeft=2;spacingRight=12;shape=cube;size=10;direction=south;fontStyle=4;html=1;rounded=0;shadow=0;comic=0;labelBackgroundColor=none;strokeWidth=1;fontFamily=Verdana;fontSize=12" parent="8VfH4JJ4uq1HrNAevUR7-78" vertex="1">
          <mxGeometry x="25" y="71.58" width="280" height="278.42" as="geometry" />
        </mxCell>
        <UserObject label="&amp;lt;&amp;lt;OS&amp;gt;&amp;gt;&lt;br&gt;" placeholders="1" name="Variable" id="8VfH4JJ4uq1HrNAevUR7-82">
          <mxCell style="text;html=1;strokeColor=none;fillColor=none;align=center;verticalAlign=middle;whiteSpace=wrap;overflow=hidden;" parent="8VfH4JJ4uq1HrNAevUR7-78" vertex="1">
            <mxGeometry x="77.5" y="71.99" width="162.5" height="37.44" as="geometry" />
          </mxCell>
        </UserObject>
        <mxCell id="8VfH4JJ4uq1HrNAevUR7-83" value="" style="verticalAlign=top;align=left;spacingTop=8;spacingLeft=2;spacingRight=12;shape=cube;size=10;direction=south;fontStyle=4;html=1;rounded=0;shadow=0;comic=0;labelBackgroundColor=none;strokeWidth=1;fontFamily=Verdana;fontSize=12" parent="8VfH4JJ4uq1HrNAevUR7-78" vertex="1">
          <mxGeometry x="42.5" y="109.41866666666667" width="235" height="217.69244444444445" as="geometry" />
        </mxCell>
        <UserObject label="&amp;lt;&amp;lt;ExecutionEnvironment&amp;gt;&amp;gt;&lt;br&gt;Apache HTTP Server" placeholders="1" name="Variable" id="8VfH4JJ4uq1HrNAevUR7-84">
          <mxCell style="text;html=1;strokeColor=none;fillColor=none;align=center;verticalAlign=middle;whiteSpace=wrap;overflow=hidden;" parent="8VfH4JJ4uq1HrNAevUR7-78" vertex="1">
            <mxGeometry x="77.5" y="125.41439999999997" width="165" height="30.985599999999998" as="geometry" />
          </mxCell>
        </UserObject>
        <mxCell id="8VfH4JJ4uq1HrNAevUR7-85" value="index.php" style="shape=note2;boundedLbl=1;whiteSpace=wrap;html=1;size=25;verticalAlign=top;align=center;spacingLeft=5;" parent="8VfH4JJ4uq1HrNAevUR7-78" vertex="1">
          <mxGeometry x="100" y="167.16" width="120" height="62.84" as="geometry" />
        </mxCell>
        <mxCell id="8VfH4JJ4uq1HrNAevUR7-86" value="&amp;lt;&amp;lt;artifact&amp;gt;&amp;gt;" style="resizeWidth=1;part=1;strokeColor=none;fillColor=none;align=left;spacingLeft=5;html=1;whiteSpace=wrap;" parent="8VfH4JJ4uq1HrNAevUR7-85" vertex="1">
          <mxGeometry width="120" height="25" relative="1" as="geometry" />
        </mxCell>
        <mxCell id="8VfH4JJ4uq1HrNAevUR7-87" value="static content" style="shape=note2;boundedLbl=1;whiteSpace=wrap;html=1;size=25;verticalAlign=top;align=center;spacingLeft=5;" parent="8VfH4JJ4uq1HrNAevUR7-78" vertex="1">
          <mxGeometry x="98.75" y="239.2" width="120" height="60.8" as="geometry" />
        </mxCell>
        <mxCell id="8VfH4JJ4uq1HrNAevUR7-88" value="&amp;lt;&amp;lt;artifact&amp;gt;&amp;gt;" style="resizeWidth=1;part=1;strokeColor=none;fillColor=none;align=left;spacingLeft=5;html=1;whiteSpace=wrap;" parent="8VfH4JJ4uq1HrNAevUR7-87" vertex="1">
          <mxGeometry width="120" height="25" relative="1" as="geometry" />
        </mxCell>
        <mxCell id="8VfH4JJ4uq1HrNAevUR7-91" value="" style="endArrow=none;html=1;rounded=0;align=center;verticalAlign=top;endFill=0;labelBackgroundColor=none;entryX=0;entryY=0;entryDx=184.325;entryDy=330;exitX=0;exitY=0;exitDx=35;exitDy=0;exitPerimeter=0;entryPerimeter=0;" parent="1" source="8VfH4JJ4uq1HrNAevUR7-29" target="8VfH4JJ4uq1HrNAevUR7-79" edge="1">
          <mxGeometry relative="1" as="geometry">
            <mxPoint x="1560" y="-324" as="sourcePoint" />
            <mxPoint x="1710" y="-324" as="targetPoint" />
          </mxGeometry>
        </mxCell>
        <mxCell id="8VfH4JJ4uq1HrNAevUR7-92" value="1.." style="resizable=0;html=1;align=left;verticalAlign=top;labelBackgroundColor=none;" parent="8VfH4JJ4uq1HrNAevUR7-91" connectable="0" vertex="1">
          <mxGeometry x="-1" relative="1" as="geometry">
            <mxPoint x="159" y="2" as="offset" />
          </mxGeometry>
        </mxCell>
        <mxCell id="8VfH4JJ4uq1HrNAevUR7-93" value="&amp;lt;&amp;lt;Protocol&amp;gt;&amp;gt;&lt;br&gt;&lt;div style=&quot;text-align: center;&quot;&gt;&lt;span style=&quot;background-color: initial;&quot;&gt;HTTPS&lt;/span&gt;&lt;/div&gt;" style="resizable=0;html=1;align=right;verticalAlign=bottom;labelBackgroundColor=none;" parent="8VfH4JJ4uq1HrNAevUR7-91" connectable="0" vertex="1">
          <mxGeometry x="1" relative="1" as="geometry">
            <mxPoint x="-90" y="-16" as="offset" />
          </mxGeometry>
        </mxCell>
        <mxCell id="8VfH4JJ4uq1HrNAevUR7-95" value="" style="group" parent="1" vertex="1" connectable="0">
          <mxGeometry x="1780" y="390" width="190" height="80" as="geometry" />
        </mxCell>
        <mxCell id="8VfH4JJ4uq1HrNAevUR7-96" value="" style="verticalAlign=top;align=left;spacingTop=8;spacingLeft=2;spacingRight=12;shape=cube;size=10;direction=south;fontStyle=4;html=1;rounded=0;shadow=0;comic=0;labelBackgroundColor=none;strokeWidth=1;fontFamily=Verdana;fontSize=12" parent="8VfH4JJ4uq1HrNAevUR7-95" vertex="1">
          <mxGeometry width="190" height="80" as="geometry" />
        </mxCell>
        <UserObject label="&amp;lt;&amp;lt;LoadBalancer&amp;gt;&amp;gt;" placeholders="1" name="Variable" id="8VfH4JJ4uq1HrNAevUR7-97">
          <mxCell style="text;html=1;strokeColor=none;fillColor=none;align=center;verticalAlign=middle;whiteSpace=wrap;overflow=hidden;" parent="8VfH4JJ4uq1HrNAevUR7-95" vertex="1">
            <mxGeometry x="12.5" y="32.5" width="165" height="15" as="geometry" />
          </mxCell>
        </UserObject>
        <mxCell id="8VfH4JJ4uq1HrNAevUR7-106" value="" style="endArrow=none;html=1;rounded=0;align=center;verticalAlign=top;endFill=0;labelBackgroundColor=none;exitX=0;exitY=0;exitDx=358.65;exitDy=170;exitPerimeter=0;" parent="1" source="8VfH4JJ4uq1HrNAevUR7-79" edge="1">
          <mxGeometry relative="1" as="geometry">
            <mxPoint x="1256.5100000000002" y="377.13235000000026" as="sourcePoint" />
            <mxPoint x="1875" y="400" as="targetPoint" />
          </mxGeometry>
        </mxCell>
        <mxCell id="8VfH4JJ4uq1HrNAevUR7-108" value="&amp;lt;&amp;lt;Protocol&amp;gt;&amp;gt;&lt;br&gt;&lt;div style=&quot;text-align: center;&quot;&gt;&lt;span style=&quot;background-color: initial;&quot;&gt;HTTPS&lt;/span&gt;&lt;/div&gt;" style="resizable=0;html=1;align=right;verticalAlign=bottom;labelBackgroundColor=none;" parent="8VfH4JJ4uq1HrNAevUR7-106" connectable="0" vertex="1">
          <mxGeometry x="1" relative="1" as="geometry">
            <mxPoint x="324" y="-40" as="offset" />
          </mxGeometry>
        </mxCell>
        <mxCell id="8VfH4JJ4uq1HrNAevUR7-109" value="" style="endArrow=none;html=1;rounded=0;align=center;verticalAlign=top;endFill=0;labelBackgroundColor=none;exitX=0;exitY=0;exitDx=80;exitDy=100;exitPerimeter=0;entryX=0.5;entryY=0;entryDx=0;entryDy=0;" parent="1" source="8VfH4JJ4uq1HrNAevUR7-96" target="8VfH4JJ4uq1HrNAevUR7-114" edge="1">
          <mxGeometry relative="1" as="geometry">
            <mxPoint x="1970" y="190" as="sourcePoint" />
            <mxPoint x="2120" y="190" as="targetPoint" />
          </mxGeometry>
        </mxCell>
        <mxCell id="8VfH4JJ4uq1HrNAevUR7-110" value="&amp;lt;&amp;lt;Protocol&amp;gt;&amp;gt;&lt;br&gt;&lt;div style=&quot;text-align: center;&quot;&gt;&lt;span style=&quot;background-color: initial;&quot;&gt;HTTPS&lt;/span&gt;&lt;/div&gt;" style="resizable=0;html=1;align=right;verticalAlign=bottom;labelBackgroundColor=none;" parent="8VfH4JJ4uq1HrNAevUR7-109" connectable="0" vertex="1">
          <mxGeometry x="1" relative="1" as="geometry">
            <mxPoint x="80" y="-50" as="offset" />
          </mxGeometry>
        </mxCell>
        <mxCell id="8VfH4JJ4uq1HrNAevUR7-112" value="" style="group" parent="1" vertex="1" connectable="0">
          <mxGeometry x="1700" y="560" width="330" height="500" as="geometry" />
        </mxCell>
        <mxCell id="8VfH4JJ4uq1HrNAevUR7-113" value="" style="verticalAlign=top;align=left;spacingTop=8;spacingLeft=2;spacingRight=12;shape=cube;size=10;direction=south;fontStyle=4;html=1;rounded=0;shadow=0;comic=0;labelBackgroundColor=none;strokeWidth=1;fontFamily=Verdana;fontSize=12;fillColor=#FFCE9F;" parent="8VfH4JJ4uq1HrNAevUR7-112" vertex="1">
          <mxGeometry y="20" width="330" height="480" as="geometry" />
        </mxCell>
        <UserObject label="&amp;lt;&amp;lt;Device&amp;gt;&amp;gt;&lt;br&gt;ApiGatewayServer" placeholders="1" name="Variable" id="8VfH4JJ4uq1HrNAevUR7-114">
          <mxCell style="text;html=1;strokeColor=none;fillColor=none;align=center;verticalAlign=middle;whiteSpace=wrap;overflow=hidden;" parent="8VfH4JJ4uq1HrNAevUR7-112" vertex="1">
            <mxGeometry x="100" y="20" width="140" height="52.86" as="geometry" />
          </mxCell>
        </UserObject>
        <mxCell id="8VfH4JJ4uq1HrNAevUR7-115" value="" style="verticalAlign=top;align=left;spacingTop=8;spacingLeft=2;spacingRight=12;shape=cube;size=10;direction=south;fontStyle=4;html=1;rounded=0;shadow=0;comic=0;labelBackgroundColor=none;strokeWidth=1;fontFamily=Verdana;fontSize=12" parent="8VfH4JJ4uq1HrNAevUR7-112" vertex="1">
          <mxGeometry x="25" y="70" width="280" height="400" as="geometry" />
        </mxCell>
        <mxCell id="8VfH4JJ4uq1HrNAevUR7-117" value="" style="verticalAlign=top;align=left;spacingTop=8;spacingLeft=2;spacingRight=12;shape=cube;size=10;direction=south;fontStyle=4;html=1;rounded=0;shadow=0;comic=0;labelBackgroundColor=none;strokeWidth=1;fontFamily=Verdana;fontSize=12" parent="8VfH4JJ4uq1HrNAevUR7-112" vertex="1">
          <mxGeometry x="42.5" y="118.93" width="235" height="321.07" as="geometry" />
        </mxCell>
        <UserObject label="&amp;lt;&amp;lt;ExecutionEnvironment&amp;gt;&amp;gt;&lt;br&gt;Docker" placeholders="1" name="Variable" id="8VfH4JJ4uq1HrNAevUR7-118">
          <mxCell style="text;html=1;strokeColor=none;fillColor=none;align=center;verticalAlign=middle;whiteSpace=wrap;overflow=hidden;" parent="8VfH4JJ4uq1HrNAevUR7-112" vertex="1">
            <mxGeometry x="82.5" y="85.25" width="165" height="33.68" as="geometry" />
          </mxCell>
        </UserObject>
        <UserObject label="&amp;lt;&amp;lt;Container&amp;gt;&amp;gt;&lt;br&gt;ApiGatewayService" placeholders="1" name="Variable" id="8VfH4JJ4uq1HrNAevUR7-126">
          <mxCell style="text;html=1;strokeColor=none;fillColor=none;align=center;verticalAlign=middle;whiteSpace=wrap;overflow=hidden;" parent="8VfH4JJ4uq1HrNAevUR7-112" vertex="1">
            <mxGeometry x="82.5" y="130" width="165" height="33.68" as="geometry" />
          </mxCell>
        </UserObject>
        <mxCell id="8VfH4JJ4uq1HrNAevUR7-127" value="" style="verticalAlign=top;align=left;spacingTop=8;spacingLeft=2;spacingRight=12;shape=cube;size=10;direction=south;fontStyle=4;html=1;rounded=0;shadow=0;comic=0;labelBackgroundColor=none;strokeWidth=1;fontFamily=Verdana;fontSize=12" parent="8VfH4JJ4uq1HrNAevUR7-112" vertex="1">
          <mxGeometry x="75" y="190" width="170" height="70" as="geometry" />
        </mxCell>
        <mxCell id="8VfH4JJ4uq1HrNAevUR7-128" value="" style="verticalAlign=top;align=left;spacingTop=8;spacingLeft=2;spacingRight=12;shape=cube;size=10;direction=south;fontStyle=4;html=1;rounded=0;shadow=0;comic=0;labelBackgroundColor=none;strokeWidth=1;fontFamily=Verdana;fontSize=12" parent="8VfH4JJ4uq1HrNAevUR7-112" vertex="1">
          <mxGeometry x="75" y="270" width="170" height="140" as="geometry" />
        </mxCell>
        <UserObject label="&amp;lt;&amp;lt;Image&amp;gt;&amp;gt;&lt;br style=&quot;border-color: var(--border-color);&quot;&gt;LightweigthOS" placeholders="1" name="Variable" id="8VfH4JJ4uq1HrNAevUR7-130">
          <mxCell style="text;html=1;strokeColor=none;fillColor=none;align=center;verticalAlign=middle;whiteSpace=wrap;overflow=hidden;" parent="8VfH4JJ4uq1HrNAevUR7-112" vertex="1">
            <mxGeometry x="77.5" y="200" width="165" height="33.68" as="geometry" />
          </mxCell>
        </UserObject>
        <UserObject label="&amp;lt;&amp;lt;Image&amp;gt;&amp;gt;&lt;br style=&quot;border-color: var(--border-color);&quot;&gt;App" placeholders="1" name="Variable" id="8VfH4JJ4uq1HrNAevUR7-131">
          <mxCell style="text;html=1;strokeColor=none;fillColor=none;align=center;verticalAlign=middle;whiteSpace=wrap;overflow=hidden;" parent="8VfH4JJ4uq1HrNAevUR7-112" vertex="1">
            <mxGeometry x="75" y="280" width="165" height="33.68" as="geometry" />
          </mxCell>
        </UserObject>
        <mxCell id="8VfH4JJ4uq1HrNAevUR7-123" value="Api Gateway Module" style="shape=note2;boundedLbl=1;whiteSpace=wrap;html=1;size=25;verticalAlign=top;align=center;spacingLeft=5;" parent="8VfH4JJ4uq1HrNAevUR7-112" vertex="1">
          <mxGeometry x="105" y="320" width="110" height="70" as="geometry" />
        </mxCell>
        <mxCell id="8VfH4JJ4uq1HrNAevUR7-124" value="&amp;lt;&amp;lt;artifact&amp;gt;&amp;gt;" style="resizeWidth=1;part=1;strokeColor=none;fillColor=none;align=left;spacingLeft=5;html=1;whiteSpace=wrap;" parent="8VfH4JJ4uq1HrNAevUR7-123" vertex="1">
          <mxGeometry width="110" height="25" relative="1" as="geometry" />
        </mxCell>
        <mxCell id="sIQ3QIApmiIohxYwdnQI-1" value="1.." style="resizable=0;html=1;align=left;verticalAlign=top;labelBackgroundColor=none;" parent="8VfH4JJ4uq1HrNAevUR7-112" connectable="0" vertex="1">
          <mxGeometry x="180" y="-10" as="geometry" />
        </mxCell>
        <mxCell id="xKT0m7g9uOmXzZgmu-4E-1" value="" style="group" parent="1" vertex="1" connectable="0">
          <mxGeometry x="2220" y="560" width="330" height="500" as="geometry" />
        </mxCell>
        <mxCell id="xKT0m7g9uOmXzZgmu-4E-2" value="" style="verticalAlign=top;align=left;spacingTop=8;spacingLeft=2;spacingRight=12;shape=cube;size=10;direction=south;fontStyle=4;html=1;rounded=0;shadow=0;comic=0;labelBackgroundColor=none;strokeWidth=1;fontFamily=Verdana;fontSize=12;fillColor=#FFCE9F;" parent="xKT0m7g9uOmXzZgmu-4E-1" vertex="1">
          <mxGeometry y="20" width="330" height="480" as="geometry" />
        </mxCell>
        <UserObject label="&amp;lt;&amp;lt;Device&amp;gt;&amp;gt;&lt;br&gt;Server" placeholders="1" name="Variable" id="xKT0m7g9uOmXzZgmu-4E-3">
          <mxCell style="text;html=1;strokeColor=none;fillColor=none;align=center;verticalAlign=middle;whiteSpace=wrap;overflow=hidden;" parent="xKT0m7g9uOmXzZgmu-4E-1" vertex="1">
            <mxGeometry x="95" y="20" width="140" height="52.86" as="geometry" />
          </mxCell>
        </UserObject>
        <mxCell id="xKT0m7g9uOmXzZgmu-4E-4" value="" style="verticalAlign=top;align=left;spacingTop=8;spacingLeft=2;spacingRight=12;shape=cube;size=10;direction=south;fontStyle=4;html=1;rounded=0;shadow=0;comic=0;labelBackgroundColor=none;strokeWidth=1;fontFamily=Verdana;fontSize=12" parent="xKT0m7g9uOmXzZgmu-4E-1" vertex="1">
          <mxGeometry x="25" y="70" width="280" height="400" as="geometry" />
        </mxCell>
        <mxCell id="xKT0m7g9uOmXzZgmu-4E-5" value="" style="verticalAlign=top;align=left;spacingTop=8;spacingLeft=2;spacingRight=12;shape=cube;size=10;direction=south;fontStyle=4;html=1;rounded=0;shadow=0;comic=0;labelBackgroundColor=none;strokeWidth=1;fontFamily=Verdana;fontSize=12" parent="xKT0m7g9uOmXzZgmu-4E-1" vertex="1">
          <mxGeometry x="42.5" y="118.93" width="235" height="321.07" as="geometry" />
        </mxCell>
        <UserObject label="&amp;lt;&amp;lt;ExecutionEnvironment&amp;gt;&amp;gt;&lt;br&gt;Docker" placeholders="1" name="Variable" id="xKT0m7g9uOmXzZgmu-4E-6">
          <mxCell style="text;html=1;strokeColor=none;fillColor=none;align=center;verticalAlign=middle;whiteSpace=wrap;overflow=hidden;" parent="xKT0m7g9uOmXzZgmu-4E-1" vertex="1">
            <mxGeometry x="82.5" y="85.25" width="165" height="33.68" as="geometry" />
          </mxCell>
        </UserObject>
        <UserObject label="&amp;lt;&amp;lt;Container&amp;gt;&amp;gt;&lt;br&gt;AuthenticationService" placeholders="1" name="Variable" id="xKT0m7g9uOmXzZgmu-4E-7">
          <mxCell style="text;html=1;strokeColor=none;fillColor=none;align=center;verticalAlign=middle;whiteSpace=wrap;overflow=hidden;" parent="xKT0m7g9uOmXzZgmu-4E-1" vertex="1">
            <mxGeometry x="82.5" y="130" width="165" height="33.68" as="geometry" />
          </mxCell>
        </UserObject>
        <mxCell id="xKT0m7g9uOmXzZgmu-4E-8" value="" style="verticalAlign=top;align=left;spacingTop=8;spacingLeft=2;spacingRight=12;shape=cube;size=10;direction=south;fontStyle=4;html=1;rounded=0;shadow=0;comic=0;labelBackgroundColor=none;strokeWidth=1;fontFamily=Verdana;fontSize=12" parent="xKT0m7g9uOmXzZgmu-4E-1" vertex="1">
          <mxGeometry x="75" y="190" width="170" height="70" as="geometry" />
        </mxCell>
        <mxCell id="xKT0m7g9uOmXzZgmu-4E-9" value="" style="verticalAlign=top;align=left;spacingTop=8;spacingLeft=2;spacingRight=12;shape=cube;size=10;direction=south;fontStyle=4;html=1;rounded=0;shadow=0;comic=0;labelBackgroundColor=none;strokeWidth=1;fontFamily=Verdana;fontSize=12" parent="xKT0m7g9uOmXzZgmu-4E-1" vertex="1">
          <mxGeometry x="75" y="270" width="170" height="140" as="geometry" />
        </mxCell>
        <UserObject label="&amp;lt;&amp;lt;Image&amp;gt;&amp;gt;&lt;br style=&quot;border-color: var(--border-color);&quot;&gt;LightweigthOS" placeholders="1" name="Variable" id="xKT0m7g9uOmXzZgmu-4E-10">
          <mxCell style="text;html=1;strokeColor=none;fillColor=none;align=center;verticalAlign=middle;whiteSpace=wrap;overflow=hidden;" parent="xKT0m7g9uOmXzZgmu-4E-1" vertex="1">
            <mxGeometry x="77.5" y="200" width="165" height="33.68" as="geometry" />
          </mxCell>
        </UserObject>
        <UserObject label="&amp;lt;&amp;lt;Image&amp;gt;&amp;gt;&lt;br style=&quot;border-color: var(--border-color);&quot;&gt;App" placeholders="1" name="Variable" id="xKT0m7g9uOmXzZgmu-4E-11">
          <mxCell style="text;html=1;strokeColor=none;fillColor=none;align=center;verticalAlign=middle;whiteSpace=wrap;overflow=hidden;" parent="xKT0m7g9uOmXzZgmu-4E-1" vertex="1">
            <mxGeometry x="75" y="280" width="165" height="33.68" as="geometry" />
          </mxCell>
        </UserObject>
        <mxCell id="xKT0m7g9uOmXzZgmu-4E-12" value="Authentication Service Module" style="shape=note2;boundedLbl=1;whiteSpace=wrap;html=1;size=25;verticalAlign=top;align=center;spacingLeft=5;" parent="xKT0m7g9uOmXzZgmu-4E-1" vertex="1">
          <mxGeometry x="100" y="320" width="120" height="70" as="geometry" />
        </mxCell>
        <mxCell id="xKT0m7g9uOmXzZgmu-4E-13" value="&amp;lt;&amp;lt;artifact&amp;gt;&amp;gt;" style="resizeWidth=1;part=1;strokeColor=none;fillColor=none;align=left;spacingLeft=5;html=1;whiteSpace=wrap;" parent="xKT0m7g9uOmXzZgmu-4E-12" vertex="1">
          <mxGeometry width="120" height="25" relative="1" as="geometry" />
        </mxCell>
        <mxCell id="xKT0m7g9uOmXzZgmu-4E-15" value="" style="group" parent="1" vertex="1" connectable="0">
          <mxGeometry x="1700" y="1230" width="330" height="460" as="geometry" />
        </mxCell>
        <mxCell id="xKT0m7g9uOmXzZgmu-4E-16" value="" style="verticalAlign=top;align=left;spacingTop=8;spacingLeft=2;spacingRight=12;shape=cube;size=10;direction=south;fontStyle=4;html=1;rounded=0;shadow=0;comic=0;labelBackgroundColor=none;strokeWidth=1;fontFamily=Verdana;fontSize=12;fillColor=#C3ABD0;" parent="xKT0m7g9uOmXzZgmu-4E-15" vertex="1">
          <mxGeometry y="21.35" width="330" height="288.65" as="geometry" />
        </mxCell>
        <UserObject label="&amp;lt;&amp;lt;Device&amp;gt;&amp;gt;&lt;br&gt;MasterServiceRegistryServer" placeholders="1" name="Variable" id="xKT0m7g9uOmXzZgmu-4E-17">
          <mxCell style="text;html=1;strokeColor=none;fillColor=none;align=center;verticalAlign=middle;whiteSpace=wrap;overflow=hidden;" parent="xKT0m7g9uOmXzZgmu-4E-15" vertex="1">
            <mxGeometry x="66.25" y="23.36" width="187.5" height="48.63" as="geometry" />
          </mxCell>
        </UserObject>
        <mxCell id="xKT0m7g9uOmXzZgmu-4E-18" value="" style="verticalAlign=top;align=left;spacingTop=8;spacingLeft=2;spacingRight=12;shape=cube;size=10;direction=south;fontStyle=4;html=1;rounded=0;shadow=0;comic=0;labelBackgroundColor=none;strokeWidth=1;fontFamily=Verdana;fontSize=12" parent="xKT0m7g9uOmXzZgmu-4E-15" vertex="1">
          <mxGeometry x="25" y="71.58" width="280" height="218.42" as="geometry" />
        </mxCell>
        <UserObject label="&amp;lt;&amp;lt;OS&amp;gt;&amp;gt;&lt;br&gt;" placeholders="1" name="Variable" id="xKT0m7g9uOmXzZgmu-4E-19">
          <mxCell style="text;html=1;strokeColor=none;fillColor=none;align=center;verticalAlign=middle;whiteSpace=wrap;overflow=hidden;" parent="xKT0m7g9uOmXzZgmu-4E-15" vertex="1">
            <mxGeometry x="77.5" y="71.98588421052631" width="165" height="37.43504210526316" as="geometry" />
          </mxCell>
        </UserObject>
        <mxCell id="xKT0m7g9uOmXzZgmu-4E-20" value="" style="verticalAlign=top;align=left;spacingTop=8;spacingLeft=2;spacingRight=12;shape=cube;size=10;direction=south;fontStyle=4;html=1;rounded=0;shadow=0;comic=0;labelBackgroundColor=none;strokeWidth=1;fontFamily=Verdana;fontSize=12" parent="xKT0m7g9uOmXzZgmu-4E-15" vertex="1">
          <mxGeometry x="42.5" y="109.42" width="235" height="160.58" as="geometry" />
        </mxCell>
        <UserObject label="&amp;lt;&amp;lt;ExecutionEnvironment&amp;gt;&amp;gt;&lt;br&gt;" placeholders="1" name="Variable" id="xKT0m7g9uOmXzZgmu-4E-21">
          <mxCell style="text;html=1;strokeColor=none;fillColor=none;align=center;verticalAlign=middle;whiteSpace=wrap;overflow=hidden;" parent="xKT0m7g9uOmXzZgmu-4E-15" vertex="1">
            <mxGeometry x="72.5" y="120.00439999999998" width="165" height="30.985599999999998" as="geometry" />
          </mxCell>
        </UserObject>
        <mxCell id="xKT0m7g9uOmXzZgmu-4E-22" value="Service Discovery Module" style="shape=note2;boundedLbl=1;whiteSpace=wrap;html=1;size=25;verticalAlign=top;align=center;spacingLeft=5;" parent="xKT0m7g9uOmXzZgmu-4E-15" vertex="1">
          <mxGeometry x="100" y="172.89" width="120" height="77.11" as="geometry" />
        </mxCell>
        <mxCell id="xKT0m7g9uOmXzZgmu-4E-23" value="&amp;lt;&amp;lt;artifact&amp;gt;&amp;gt;" style="resizeWidth=1;part=1;strokeColor=none;fillColor=none;align=left;spacingLeft=5;html=1;whiteSpace=wrap;" parent="xKT0m7g9uOmXzZgmu-4E-22" vertex="1">
          <mxGeometry width="120" height="25" relative="1" as="geometry" />
        </mxCell>
        <mxCell id="xKT0m7g9uOmXzZgmu-4E-26" value="" style="group" parent="1" vertex="1" connectable="0">
          <mxGeometry x="2210" y="1170" width="330" height="500" as="geometry" />
        </mxCell>
        <mxCell id="xKT0m7g9uOmXzZgmu-4E-27" value="" style="verticalAlign=top;align=left;spacingTop=8;spacingLeft=2;spacingRight=12;shape=cube;size=10;direction=south;fontStyle=4;html=1;rounded=0;shadow=0;comic=0;labelBackgroundColor=none;strokeWidth=1;fontFamily=Verdana;fontSize=12;fillColor=#FFCE9F;" parent="xKT0m7g9uOmXzZgmu-4E-26" vertex="1">
          <mxGeometry y="20" width="330" height="480" as="geometry" />
        </mxCell>
        <UserObject label="&amp;lt;&amp;lt;Device&amp;gt;&amp;gt;&lt;br&gt;Server" placeholders="1" name="Variable" id="xKT0m7g9uOmXzZgmu-4E-28">
          <mxCell style="text;html=1;strokeColor=none;fillColor=none;align=center;verticalAlign=middle;whiteSpace=wrap;overflow=hidden;" parent="xKT0m7g9uOmXzZgmu-4E-26" vertex="1">
            <mxGeometry x="95" y="20" width="140" height="52.86" as="geometry" />
          </mxCell>
        </UserObject>
        <mxCell id="xKT0m7g9uOmXzZgmu-4E-29" value="" style="verticalAlign=top;align=left;spacingTop=8;spacingLeft=2;spacingRight=12;shape=cube;size=10;direction=south;fontStyle=4;html=1;rounded=0;shadow=0;comic=0;labelBackgroundColor=none;strokeWidth=1;fontFamily=Verdana;fontSize=12" parent="xKT0m7g9uOmXzZgmu-4E-26" vertex="1">
          <mxGeometry x="25" y="70" width="280" height="400" as="geometry" />
        </mxCell>
        <mxCell id="xKT0m7g9uOmXzZgmu-4E-30" value="" style="verticalAlign=top;align=left;spacingTop=8;spacingLeft=2;spacingRight=12;shape=cube;size=10;direction=south;fontStyle=4;html=1;rounded=0;shadow=0;comic=0;labelBackgroundColor=none;strokeWidth=1;fontFamily=Verdana;fontSize=12" parent="xKT0m7g9uOmXzZgmu-4E-26" vertex="1">
          <mxGeometry x="42.5" y="118.93" width="235" height="321.07" as="geometry" />
        </mxCell>
        <UserObject label="&amp;lt;&amp;lt;ExecutionEnvironment&amp;gt;&amp;gt;&lt;br&gt;Docker" placeholders="1" name="Variable" id="xKT0m7g9uOmXzZgmu-4E-31">
          <mxCell style="text;html=1;strokeColor=none;fillColor=none;align=center;verticalAlign=middle;whiteSpace=wrap;overflow=hidden;" parent="xKT0m7g9uOmXzZgmu-4E-26" vertex="1">
            <mxGeometry x="82.5" y="85.25" width="165" height="33.68" as="geometry" />
          </mxCell>
        </UserObject>
        <UserObject label="&amp;lt;&amp;lt;Container&amp;gt;&amp;gt;&lt;br&gt;TournamentService" placeholders="1" name="Variable" id="xKT0m7g9uOmXzZgmu-4E-32">
          <mxCell style="text;html=1;strokeColor=none;fillColor=none;align=center;verticalAlign=middle;whiteSpace=wrap;overflow=hidden;" parent="xKT0m7g9uOmXzZgmu-4E-26" vertex="1">
            <mxGeometry x="82.5" y="130" width="165" height="33.68" as="geometry" />
          </mxCell>
        </UserObject>
        <mxCell id="xKT0m7g9uOmXzZgmu-4E-33" value="" style="verticalAlign=top;align=left;spacingTop=8;spacingLeft=2;spacingRight=12;shape=cube;size=10;direction=south;fontStyle=4;html=1;rounded=0;shadow=0;comic=0;labelBackgroundColor=none;strokeWidth=1;fontFamily=Verdana;fontSize=12" parent="xKT0m7g9uOmXzZgmu-4E-26" vertex="1">
          <mxGeometry x="75" y="190" width="170" height="70" as="geometry" />
        </mxCell>
        <mxCell id="xKT0m7g9uOmXzZgmu-4E-34" value="" style="verticalAlign=top;align=left;spacingTop=8;spacingLeft=2;spacingRight=12;shape=cube;size=10;direction=south;fontStyle=4;html=1;rounded=0;shadow=0;comic=0;labelBackgroundColor=none;strokeWidth=1;fontFamily=Verdana;fontSize=12" parent="xKT0m7g9uOmXzZgmu-4E-26" vertex="1">
          <mxGeometry x="75" y="270" width="170" height="140" as="geometry" />
        </mxCell>
        <UserObject label="&amp;lt;&amp;lt;Image&amp;gt;&amp;gt;&lt;br style=&quot;border-color: var(--border-color);&quot;&gt;LightweigthOS" placeholders="1" name="Variable" id="xKT0m7g9uOmXzZgmu-4E-35">
          <mxCell style="text;html=1;strokeColor=none;fillColor=none;align=center;verticalAlign=middle;whiteSpace=wrap;overflow=hidden;" parent="xKT0m7g9uOmXzZgmu-4E-26" vertex="1">
            <mxGeometry x="77.5" y="200" width="165" height="33.68" as="geometry" />
          </mxCell>
        </UserObject>
        <UserObject label="&amp;lt;&amp;lt;Image&amp;gt;&amp;gt;&lt;br style=&quot;border-color: var(--border-color);&quot;&gt;App" placeholders="1" name="Variable" id="xKT0m7g9uOmXzZgmu-4E-36">
          <mxCell style="text;html=1;strokeColor=none;fillColor=none;align=center;verticalAlign=middle;whiteSpace=wrap;overflow=hidden;" parent="xKT0m7g9uOmXzZgmu-4E-26" vertex="1">
            <mxGeometry x="75" y="280" width="165" height="33.68" as="geometry" />
          </mxCell>
        </UserObject>
        <mxCell id="xKT0m7g9uOmXzZgmu-4E-37" value="Tournament Service Module" style="shape=note2;boundedLbl=1;whiteSpace=wrap;html=1;size=25;verticalAlign=top;align=center;spacingLeft=5;" parent="xKT0m7g9uOmXzZgmu-4E-26" vertex="1">
          <mxGeometry x="100" y="320" width="120" height="70" as="geometry" />
        </mxCell>
        <mxCell id="xKT0m7g9uOmXzZgmu-4E-38" value="&amp;lt;&amp;lt;artifact&amp;gt;&amp;gt;" style="resizeWidth=1;part=1;strokeColor=none;fillColor=none;align=left;spacingLeft=5;html=1;whiteSpace=wrap;" parent="xKT0m7g9uOmXzZgmu-4E-37" vertex="1">
          <mxGeometry width="120" height="25" relative="1" as="geometry" />
        </mxCell>
        <mxCell id="xKT0m7g9uOmXzZgmu-4E-39" value="" style="group" parent="1" vertex="1" connectable="0">
          <mxGeometry x="1170" y="1170" width="330" height="500" as="geometry" />
        </mxCell>
        <mxCell id="xKT0m7g9uOmXzZgmu-4E-40" value="" style="verticalAlign=top;align=left;spacingTop=8;spacingLeft=2;spacingRight=12;shape=cube;size=10;direction=south;fontStyle=4;html=1;rounded=0;shadow=0;comic=0;labelBackgroundColor=none;strokeWidth=1;fontFamily=Verdana;fontSize=12;fillColor=#FFCE9F;" parent="xKT0m7g9uOmXzZgmu-4E-39" vertex="1">
          <mxGeometry y="20" width="330" height="480" as="geometry" />
        </mxCell>
        <UserObject label="&amp;lt;&amp;lt;Device&amp;gt;&amp;gt;&lt;br&gt;Server" placeholders="1" name="Variable" id="xKT0m7g9uOmXzZgmu-4E-41">
          <mxCell style="text;html=1;strokeColor=none;fillColor=none;align=center;verticalAlign=middle;whiteSpace=wrap;overflow=hidden;" parent="xKT0m7g9uOmXzZgmu-4E-39" vertex="1">
            <mxGeometry x="95" y="20" width="140" height="52.86" as="geometry" />
          </mxCell>
        </UserObject>
        <mxCell id="xKT0m7g9uOmXzZgmu-4E-42" value="" style="verticalAlign=top;align=left;spacingTop=8;spacingLeft=2;spacingRight=12;shape=cube;size=10;direction=south;fontStyle=4;html=1;rounded=0;shadow=0;comic=0;labelBackgroundColor=none;strokeWidth=1;fontFamily=Verdana;fontSize=12" parent="xKT0m7g9uOmXzZgmu-4E-39" vertex="1">
          <mxGeometry x="25" y="70" width="280" height="400" as="geometry" />
        </mxCell>
        <mxCell id="xKT0m7g9uOmXzZgmu-4E-43" value="" style="verticalAlign=top;align=left;spacingTop=8;spacingLeft=2;spacingRight=12;shape=cube;size=10;direction=south;fontStyle=4;html=1;rounded=0;shadow=0;comic=0;labelBackgroundColor=none;strokeWidth=1;fontFamily=Verdana;fontSize=12" parent="xKT0m7g9uOmXzZgmu-4E-39" vertex="1">
          <mxGeometry x="42.5" y="118.93" width="235" height="321.07" as="geometry" />
        </mxCell>
        <UserObject label="&amp;lt;&amp;lt;ExecutionEnvironment&amp;gt;&amp;gt;&lt;br&gt;Docker" placeholders="1" name="Variable" id="xKT0m7g9uOmXzZgmu-4E-44">
          <mxCell style="text;html=1;strokeColor=none;fillColor=none;align=center;verticalAlign=middle;whiteSpace=wrap;overflow=hidden;" parent="xKT0m7g9uOmXzZgmu-4E-39" vertex="1">
            <mxGeometry x="82.5" y="85.25" width="165" height="33.68" as="geometry" />
          </mxCell>
        </UserObject>
        <UserObject label="&amp;lt;&amp;lt;Container&amp;gt;&amp;gt;&lt;br&gt;EvaluationService" placeholders="1" name="Variable" id="xKT0m7g9uOmXzZgmu-4E-45">
          <mxCell style="text;html=1;strokeColor=none;fillColor=none;align=center;verticalAlign=middle;whiteSpace=wrap;overflow=hidden;" parent="xKT0m7g9uOmXzZgmu-4E-39" vertex="1">
            <mxGeometry x="82.5" y="130" width="165" height="33.68" as="geometry" />
          </mxCell>
        </UserObject>
        <mxCell id="xKT0m7g9uOmXzZgmu-4E-46" value="" style="verticalAlign=top;align=left;spacingTop=8;spacingLeft=2;spacingRight=12;shape=cube;size=10;direction=south;fontStyle=4;html=1;rounded=0;shadow=0;comic=0;labelBackgroundColor=none;strokeWidth=1;fontFamily=Verdana;fontSize=12" parent="xKT0m7g9uOmXzZgmu-4E-39" vertex="1">
          <mxGeometry x="75" y="190" width="170" height="70" as="geometry" />
        </mxCell>
        <mxCell id="xKT0m7g9uOmXzZgmu-4E-47" value="" style="verticalAlign=top;align=left;spacingTop=8;spacingLeft=2;spacingRight=12;shape=cube;size=10;direction=south;fontStyle=4;html=1;rounded=0;shadow=0;comic=0;labelBackgroundColor=none;strokeWidth=1;fontFamily=Verdana;fontSize=12" parent="xKT0m7g9uOmXzZgmu-4E-39" vertex="1">
          <mxGeometry x="75" y="270" width="170" height="140" as="geometry" />
        </mxCell>
        <UserObject label="&amp;lt;&amp;lt;Image&amp;gt;&amp;gt;&lt;br style=&quot;border-color: var(--border-color);&quot;&gt;LightweigthOS" placeholders="1" name="Variable" id="xKT0m7g9uOmXzZgmu-4E-48">
          <mxCell style="text;html=1;strokeColor=none;fillColor=none;align=center;verticalAlign=middle;whiteSpace=wrap;overflow=hidden;" parent="xKT0m7g9uOmXzZgmu-4E-39" vertex="1">
            <mxGeometry x="77.5" y="200" width="165" height="33.68" as="geometry" />
          </mxCell>
        </UserObject>
        <UserObject label="&amp;lt;&amp;lt;Image&amp;gt;&amp;gt;&lt;br style=&quot;border-color: var(--border-color);&quot;&gt;App" placeholders="1" name="Variable" id="xKT0m7g9uOmXzZgmu-4E-49">
          <mxCell style="text;html=1;strokeColor=none;fillColor=none;align=center;verticalAlign=middle;whiteSpace=wrap;overflow=hidden;" parent="xKT0m7g9uOmXzZgmu-4E-39" vertex="1">
            <mxGeometry x="75" y="280" width="165" height="33.68" as="geometry" />
          </mxCell>
        </UserObject>
        <mxCell id="xKT0m7g9uOmXzZgmu-4E-50" value="Evaluation Service Module" style="shape=note2;boundedLbl=1;whiteSpace=wrap;html=1;size=25;verticalAlign=top;align=center;spacingLeft=5;" parent="xKT0m7g9uOmXzZgmu-4E-39" vertex="1">
          <mxGeometry x="100" y="320" width="120" height="70" as="geometry" />
        </mxCell>
        <mxCell id="xKT0m7g9uOmXzZgmu-4E-51" value="&amp;lt;&amp;lt;artifact&amp;gt;&amp;gt;" style="resizeWidth=1;part=1;strokeColor=none;fillColor=none;align=left;spacingLeft=5;html=1;whiteSpace=wrap;" parent="xKT0m7g9uOmXzZgmu-4E-50" vertex="1">
          <mxGeometry width="120" height="25" relative="1" as="geometry" />
        </mxCell>
        <mxCell id="xKT0m7g9uOmXzZgmu-4E-52" value="" style="group" parent="1" vertex="1" connectable="0">
          <mxGeometry x="1170" y="580" width="330" height="500" as="geometry" />
        </mxCell>
        <mxCell id="xKT0m7g9uOmXzZgmu-4E-53" value="" style="verticalAlign=top;align=left;spacingTop=8;spacingLeft=2;spacingRight=12;shape=cube;size=10;direction=south;fontStyle=4;html=1;rounded=0;shadow=0;comic=0;labelBackgroundColor=none;strokeWidth=1;fontFamily=Verdana;fontSize=12;fillColor=#FFCE9F;" parent="xKT0m7g9uOmXzZgmu-4E-52" vertex="1">
          <mxGeometry y="20" width="330" height="480" as="geometry" />
        </mxCell>
        <UserObject label="&amp;lt;&amp;lt;Device&amp;gt;&amp;gt;&lt;br&gt;Server" placeholders="1" name="Variable" id="xKT0m7g9uOmXzZgmu-4E-54">
          <mxCell style="text;html=1;strokeColor=none;fillColor=none;align=center;verticalAlign=middle;whiteSpace=wrap;overflow=hidden;" parent="xKT0m7g9uOmXzZgmu-4E-52" vertex="1">
            <mxGeometry x="95" y="20" width="140" height="52.86" as="geometry" />
          </mxCell>
        </UserObject>
        <mxCell id="xKT0m7g9uOmXzZgmu-4E-55" value="" style="verticalAlign=top;align=left;spacingTop=8;spacingLeft=2;spacingRight=12;shape=cube;size=10;direction=south;fontStyle=4;html=1;rounded=0;shadow=0;comic=0;labelBackgroundColor=none;strokeWidth=1;fontFamily=Verdana;fontSize=12" parent="xKT0m7g9uOmXzZgmu-4E-52" vertex="1">
          <mxGeometry x="25" y="70" width="280" height="400" as="geometry" />
        </mxCell>
        <mxCell id="xKT0m7g9uOmXzZgmu-4E-56" value="" style="verticalAlign=top;align=left;spacingTop=8;spacingLeft=2;spacingRight=12;shape=cube;size=10;direction=south;fontStyle=4;html=1;rounded=0;shadow=0;comic=0;labelBackgroundColor=none;strokeWidth=1;fontFamily=Verdana;fontSize=12" parent="xKT0m7g9uOmXzZgmu-4E-52" vertex="1">
          <mxGeometry x="42.5" y="118.93" width="235" height="321.07" as="geometry" />
        </mxCell>
        <UserObject label="&amp;lt;&amp;lt;ExecutionEnvironment&amp;gt;&amp;gt;&lt;br&gt;Docker" placeholders="1" name="Variable" id="xKT0m7g9uOmXzZgmu-4E-57">
          <mxCell style="text;html=1;strokeColor=none;fillColor=none;align=center;verticalAlign=middle;whiteSpace=wrap;overflow=hidden;" parent="xKT0m7g9uOmXzZgmu-4E-52" vertex="1">
            <mxGeometry x="82.5" y="85.25" width="165" height="33.68" as="geometry" />
          </mxCell>
        </UserObject>
        <UserObject label="&amp;lt;&amp;lt;Container&amp;gt;&amp;gt;&lt;br&gt;NotificationService" placeholders="1" name="Variable" id="xKT0m7g9uOmXzZgmu-4E-58">
          <mxCell style="text;html=1;strokeColor=none;fillColor=none;align=center;verticalAlign=middle;whiteSpace=wrap;overflow=hidden;" parent="xKT0m7g9uOmXzZgmu-4E-52" vertex="1">
            <mxGeometry x="82.5" y="130" width="165" height="33.68" as="geometry" />
          </mxCell>
        </UserObject>
        <mxCell id="xKT0m7g9uOmXzZgmu-4E-59" value="" style="verticalAlign=top;align=left;spacingTop=8;spacingLeft=2;spacingRight=12;shape=cube;size=10;direction=south;fontStyle=4;html=1;rounded=0;shadow=0;comic=0;labelBackgroundColor=none;strokeWidth=1;fontFamily=Verdana;fontSize=12" parent="xKT0m7g9uOmXzZgmu-4E-52" vertex="1">
          <mxGeometry x="75" y="190" width="170" height="70" as="geometry" />
        </mxCell>
        <mxCell id="xKT0m7g9uOmXzZgmu-4E-60" value="" style="verticalAlign=top;align=left;spacingTop=8;spacingLeft=2;spacingRight=12;shape=cube;size=10;direction=south;fontStyle=4;html=1;rounded=0;shadow=0;comic=0;labelBackgroundColor=none;strokeWidth=1;fontFamily=Verdana;fontSize=12" parent="xKT0m7g9uOmXzZgmu-4E-52" vertex="1">
          <mxGeometry x="75" y="270" width="170" height="140" as="geometry" />
        </mxCell>
        <UserObject label="&amp;lt;&amp;lt;Image&amp;gt;&amp;gt;&lt;br style=&quot;border-color: var(--border-color);&quot;&gt;LightweigthOS" placeholders="1" name="Variable" id="xKT0m7g9uOmXzZgmu-4E-61">
          <mxCell style="text;html=1;strokeColor=none;fillColor=none;align=center;verticalAlign=middle;whiteSpace=wrap;overflow=hidden;" parent="xKT0m7g9uOmXzZgmu-4E-52" vertex="1">
            <mxGeometry x="77.5" y="200" width="165" height="33.68" as="geometry" />
          </mxCell>
        </UserObject>
        <UserObject label="&amp;lt;&amp;lt;Image&amp;gt;&amp;gt;&lt;br style=&quot;border-color: var(--border-color);&quot;&gt;App" placeholders="1" name="Variable" id="xKT0m7g9uOmXzZgmu-4E-62">
          <mxCell style="text;html=1;strokeColor=none;fillColor=none;align=center;verticalAlign=middle;whiteSpace=wrap;overflow=hidden;" parent="xKT0m7g9uOmXzZgmu-4E-52" vertex="1">
            <mxGeometry x="75" y="280" width="165" height="33.68" as="geometry" />
          </mxCell>
        </UserObject>
        <mxCell id="xKT0m7g9uOmXzZgmu-4E-63" value="Notification Service Module" style="shape=note2;boundedLbl=1;whiteSpace=wrap;html=1;size=25;verticalAlign=top;align=center;spacingLeft=5;" parent="xKT0m7g9uOmXzZgmu-4E-52" vertex="1">
          <mxGeometry x="100" y="320" width="120" height="70" as="geometry" />
        </mxCell>
        <mxCell id="xKT0m7g9uOmXzZgmu-4E-64" value="&amp;lt;&amp;lt;artifact&amp;gt;&amp;gt;" style="resizeWidth=1;part=1;strokeColor=none;fillColor=none;align=left;spacingLeft=5;html=1;whiteSpace=wrap;" parent="xKT0m7g9uOmXzZgmu-4E-63" vertex="1">
          <mxGeometry width="120" height="25" relative="1" as="geometry" />
        </mxCell>
        <mxCell id="xKT0m7g9uOmXzZgmu-4E-65" value="" style="group" parent="1" vertex="1" connectable="0">
          <mxGeometry x="1690" y="1980" width="330" height="580" as="geometry" />
        </mxCell>
        <mxCell id="xKT0m7g9uOmXzZgmu-4E-66" value="" style="verticalAlign=top;align=left;spacingTop=8;spacingLeft=2;spacingRight=12;shape=cube;size=10;direction=south;fontStyle=4;html=1;rounded=0;shadow=0;comic=0;labelBackgroundColor=none;strokeWidth=1;fontFamily=Verdana;fontSize=12;fillColor=#FFCE9F;" parent="xKT0m7g9uOmXzZgmu-4E-65" vertex="1">
          <mxGeometry y="26.92" width="330" height="473.08" as="geometry" />
        </mxCell>
        <UserObject label="&amp;lt;&amp;lt;Device&amp;gt;&amp;gt;&lt;br&gt;Server" placeholders="1" name="Variable" id="xKT0m7g9uOmXzZgmu-4E-67">
          <mxCell style="text;html=1;strokeColor=none;fillColor=none;align=center;verticalAlign=middle;whiteSpace=wrap;overflow=hidden;" parent="xKT0m7g9uOmXzZgmu-4E-65" vertex="1">
            <mxGeometry x="115" y="29.453913043478263" width="90" height="61.316086956521744" as="geometry" />
          </mxCell>
        </UserObject>
        <mxCell id="sIQ3QIApmiIohxYwdnQI-16" value="" style="group" parent="xKT0m7g9uOmXzZgmu-4E-65" vertex="1" connectable="0">
          <mxGeometry x="-5" y="10" width="330" height="500" as="geometry" />
        </mxCell>
        <mxCell id="sIQ3QIApmiIohxYwdnQI-19" value="" style="verticalAlign=top;align=left;spacingTop=8;spacingLeft=2;spacingRight=12;shape=cube;size=10;direction=south;fontStyle=4;html=1;rounded=0;shadow=0;comic=0;labelBackgroundColor=none;strokeWidth=1;fontFamily=Verdana;fontSize=12" parent="sIQ3QIApmiIohxYwdnQI-16" vertex="1">
          <mxGeometry x="25" y="70" width="280" height="400" as="geometry" />
        </mxCell>
        <mxCell id="sIQ3QIApmiIohxYwdnQI-20" value="" style="verticalAlign=top;align=left;spacingTop=8;spacingLeft=2;spacingRight=12;shape=cube;size=10;direction=south;fontStyle=4;html=1;rounded=0;shadow=0;comic=0;labelBackgroundColor=none;strokeWidth=1;fontFamily=Verdana;fontSize=12" parent="sIQ3QIApmiIohxYwdnQI-16" vertex="1">
          <mxGeometry x="42.5" y="118.93" width="235" height="331.07" as="geometry" />
        </mxCell>
        <UserObject label="&amp;lt;&amp;lt;ExecutionEnvironment&amp;gt;&amp;gt;&lt;br&gt;Docker" placeholders="1" name="Variable" id="sIQ3QIApmiIohxYwdnQI-21">
          <mxCell style="text;html=1;strokeColor=none;fillColor=none;align=center;verticalAlign=middle;whiteSpace=wrap;overflow=hidden;" parent="sIQ3QIApmiIohxYwdnQI-16" vertex="1">
            <mxGeometry x="82.5" y="85.25" width="165" height="33.68" as="geometry" />
          </mxCell>
        </UserObject>
        <UserObject label="&amp;lt;&amp;lt;Container&amp;gt;&amp;gt;&lt;br&gt;GitHubIntegrationService" placeholders="1" name="Variable" id="sIQ3QIApmiIohxYwdnQI-22">
          <mxCell style="text;html=1;strokeColor=none;fillColor=none;align=center;verticalAlign=middle;whiteSpace=wrap;overflow=hidden;" parent="sIQ3QIApmiIohxYwdnQI-16" vertex="1">
            <mxGeometry x="82.5" y="130" width="165" height="33.68" as="geometry" />
          </mxCell>
        </UserObject>
        <mxCell id="sIQ3QIApmiIohxYwdnQI-23" value="" style="verticalAlign=top;align=left;spacingTop=8;spacingLeft=2;spacingRight=12;shape=cube;size=10;direction=south;fontStyle=4;html=1;rounded=0;shadow=0;comic=0;labelBackgroundColor=none;strokeWidth=1;fontFamily=Verdana;fontSize=12" parent="sIQ3QIApmiIohxYwdnQI-16" vertex="1">
          <mxGeometry x="75" y="190" width="170" height="70" as="geometry" />
        </mxCell>
        <mxCell id="sIQ3QIApmiIohxYwdnQI-24" value="" style="verticalAlign=top;align=left;spacingTop=8;spacingLeft=2;spacingRight=12;shape=cube;size=10;direction=south;fontStyle=4;html=1;rounded=0;shadow=0;comic=0;labelBackgroundColor=none;strokeWidth=1;fontFamily=Verdana;fontSize=12" parent="sIQ3QIApmiIohxYwdnQI-16" vertex="1">
          <mxGeometry x="75" y="270" width="170" height="150" as="geometry" />
        </mxCell>
        <UserObject label="&amp;lt;&amp;lt;Image&amp;gt;&amp;gt;&lt;br style=&quot;border-color: var(--border-color);&quot;&gt;LightweigthOS" placeholders="1" name="Variable" id="sIQ3QIApmiIohxYwdnQI-25">
          <mxCell style="text;html=1;strokeColor=none;fillColor=none;align=center;verticalAlign=middle;whiteSpace=wrap;overflow=hidden;" parent="sIQ3QIApmiIohxYwdnQI-16" vertex="1">
            <mxGeometry x="77.5" y="200" width="165" height="33.68" as="geometry" />
          </mxCell>
        </UserObject>
        <UserObject label="&amp;lt;&amp;lt;Image&amp;gt;&amp;gt;&lt;br style=&quot;border-color: var(--border-color);&quot;&gt;App" placeholders="1" name="Variable" id="sIQ3QIApmiIohxYwdnQI-26">
          <mxCell style="text;html=1;strokeColor=none;fillColor=none;align=center;verticalAlign=middle;whiteSpace=wrap;overflow=hidden;" parent="sIQ3QIApmiIohxYwdnQI-16" vertex="1">
            <mxGeometry x="75" y="280" width="165" height="33.68" as="geometry" />
          </mxCell>
        </UserObject>
        <mxCell id="sIQ3QIApmiIohxYwdnQI-27" value="GitHub Integration Service Module" style="shape=note2;boundedLbl=1;whiteSpace=wrap;html=1;size=25;verticalAlign=top;align=center;spacingLeft=5;" parent="sIQ3QIApmiIohxYwdnQI-16" vertex="1">
          <mxGeometry x="100" y="320" width="120" height="70" as="geometry" />
        </mxCell>
        <mxCell id="sIQ3QIApmiIohxYwdnQI-28" value="&amp;lt;&amp;lt;artifact&amp;gt;&amp;gt;" style="resizeWidth=1;part=1;strokeColor=none;fillColor=none;align=left;spacingLeft=5;html=1;whiteSpace=wrap;" parent="sIQ3QIApmiIohxYwdnQI-27" vertex="1">
          <mxGeometry width="120" height="25" relative="1" as="geometry" />
        </mxCell>
        <mxCell id="sIQ3QIApmiIohxYwdnQI-14" value="1.." style="resizable=0;html=1;align=left;verticalAlign=top;labelBackgroundColor=none;" parent="sIQ3QIApmiIohxYwdnQI-16" connectable="0" vertex="1">
          <mxGeometry x="52" y="-20.998695652173915" as="geometry" />
        </mxCell>
        <mxCell id="xKT0m7g9uOmXzZgmu-4E-74" value="" style="group" parent="1" vertex="1" connectable="0">
          <mxGeometry x="2700" y="1250" width="330" height="460" as="geometry" />
        </mxCell>
        <mxCell id="xKT0m7g9uOmXzZgmu-4E-75" value="" style="verticalAlign=top;align=left;spacingTop=8;spacingLeft=2;spacingRight=12;shape=cube;size=10;direction=south;fontStyle=4;html=1;rounded=0;shadow=0;comic=0;labelBackgroundColor=none;strokeWidth=1;fontFamily=Verdana;fontSize=12;fillColor=#B9E0A5;" parent="xKT0m7g9uOmXzZgmu-4E-74" vertex="1">
          <mxGeometry y="21.35" width="330" height="288.65" as="geometry" />
        </mxCell>
        <UserObject label="&amp;lt;&amp;lt;Device&amp;gt;&amp;gt;&lt;br&gt;DatabaseServer" placeholders="1" name="Variable" id="xKT0m7g9uOmXzZgmu-4E-76">
          <mxCell style="text;html=1;strokeColor=none;fillColor=none;align=center;verticalAlign=middle;whiteSpace=wrap;overflow=hidden;" parent="xKT0m7g9uOmXzZgmu-4E-74" vertex="1">
            <mxGeometry x="115" y="23.36" width="90" height="48.63" as="geometry" />
          </mxCell>
        </UserObject>
        <mxCell id="xKT0m7g9uOmXzZgmu-4E-77" value="" style="verticalAlign=top;align=left;spacingTop=8;spacingLeft=2;spacingRight=12;shape=cube;size=10;direction=south;fontStyle=4;html=1;rounded=0;shadow=0;comic=0;labelBackgroundColor=none;strokeWidth=1;fontFamily=Verdana;fontSize=12" parent="xKT0m7g9uOmXzZgmu-4E-74" vertex="1">
          <mxGeometry x="25" y="71.58" width="280" height="218.42" as="geometry" />
        </mxCell>
        <UserObject label="&amp;lt;&amp;lt;OS&amp;gt;&amp;gt;&lt;br&gt;" placeholders="1" name="Variable" id="xKT0m7g9uOmXzZgmu-4E-78">
          <mxCell style="text;html=1;strokeColor=none;fillColor=none;align=center;verticalAlign=middle;whiteSpace=wrap;overflow=hidden;" parent="xKT0m7g9uOmXzZgmu-4E-74" vertex="1">
            <mxGeometry x="77.5" y="71.98588421052631" width="165" height="37.43504210526316" as="geometry" />
          </mxCell>
        </UserObject>
        <mxCell id="xKT0m7g9uOmXzZgmu-4E-79" value="" style="verticalAlign=top;align=left;spacingTop=8;spacingLeft=2;spacingRight=12;shape=cube;size=10;direction=south;fontStyle=4;html=1;rounded=0;shadow=0;comic=0;labelBackgroundColor=none;strokeWidth=1;fontFamily=Verdana;fontSize=12" parent="xKT0m7g9uOmXzZgmu-4E-74" vertex="1">
          <mxGeometry x="42.5" y="109.42" width="235" height="160.58" as="geometry" />
        </mxCell>
        <UserObject label="&amp;lt;&amp;lt;ExecutionEnvironment&amp;gt;&amp;gt;&lt;br&gt;MongoDB" placeholders="1" name="Variable" id="xKT0m7g9uOmXzZgmu-4E-80">
          <mxCell style="text;html=1;strokeColor=none;fillColor=none;align=center;verticalAlign=middle;whiteSpace=wrap;overflow=hidden;" parent="xKT0m7g9uOmXzZgmu-4E-74" vertex="1">
            <mxGeometry x="40" y="125.41" width="230" height="30.99" as="geometry" />
          </mxCell>
        </UserObject>
        <mxCell id="xKT0m7g9uOmXzZgmu-4E-81" value="Tournaments Collection" style="shape=note2;boundedLbl=1;whiteSpace=wrap;html=1;size=25;verticalAlign=top;align=center;spacingLeft=5;" parent="xKT0m7g9uOmXzZgmu-4E-74" vertex="1">
          <mxGeometry x="100" y="172.89" width="120" height="77.11" as="geometry" />
        </mxCell>
        <mxCell id="xKT0m7g9uOmXzZgmu-4E-82" value="&amp;lt;&amp;lt;artifact&amp;gt;&amp;gt;" style="resizeWidth=1;part=1;strokeColor=none;fillColor=none;align=left;spacingLeft=5;html=1;whiteSpace=wrap;" parent="xKT0m7g9uOmXzZgmu-4E-81" vertex="1">
          <mxGeometry width="120" height="25" relative="1" as="geometry" />
        </mxCell>
        <mxCell id="xKT0m7g9uOmXzZgmu-4E-96" value="" style="endArrow=none;html=1;rounded=0;align=center;verticalAlign=top;endFill=0;labelBackgroundColor=none;exitX=0;exitY=0;exitDx=480;exitDy=170;exitPerimeter=0;entryX=0.5;entryY=0;entryDx=0;entryDy=0;" parent="1" source="8VfH4JJ4uq1HrNAevUR7-113" target="xKT0m7g9uOmXzZgmu-4E-17" edge="1">
          <mxGeometry relative="1" as="geometry">
            <mxPoint x="1880" y="240" as="sourcePoint" />
            <mxPoint x="1880" y="590" as="targetPoint" />
          </mxGeometry>
        </mxCell>
        <mxCell id="xKT0m7g9uOmXzZgmu-4E-97" value="&amp;lt;&amp;lt;Protocol&amp;gt;&amp;gt;&lt;br&gt;&lt;div style=&quot;text-align: center;&quot;&gt;&lt;span style=&quot;background-color: initial;&quot;&gt;HTTPS&lt;/span&gt;&lt;/div&gt;" style="resizable=0;html=1;align=right;verticalAlign=bottom;labelBackgroundColor=none;" parent="xKT0m7g9uOmXzZgmu-4E-96" connectable="0" vertex="1">
          <mxGeometry x="1" relative="1" as="geometry">
            <mxPoint x="80" y="-83" as="offset" />
          </mxGeometry>
        </mxCell>
        <mxCell id="xKT0m7g9uOmXzZgmu-4E-98" value="" style="endArrow=none;html=1;rounded=0;align=center;verticalAlign=top;endFill=0;labelBackgroundColor=none;exitX=1;exitY=1;exitDx=0;exitDy=0;exitPerimeter=0;entryX=0;entryY=0;entryDx=0;entryDy=0;entryPerimeter=0;" parent="1" source="xKT0m7g9uOmXzZgmu-4E-2" target="xKT0m7g9uOmXzZgmu-4E-16" edge="1">
          <mxGeometry relative="1" as="geometry">
            <mxPoint x="1870" y="1070" as="sourcePoint" />
            <mxPoint x="1870" y="1203" as="targetPoint" />
          </mxGeometry>
        </mxCell>
        <mxCell id="xKT0m7g9uOmXzZgmu-4E-99" value="&amp;lt;&amp;lt;Protocol&amp;gt;&amp;gt;&lt;br&gt;&lt;div style=&quot;text-align: center;&quot;&gt;&lt;span style=&quot;background-color: initial;&quot;&gt;HTTPS&lt;/span&gt;&lt;/div&gt;" style="resizable=0;html=1;align=right;verticalAlign=bottom;labelBackgroundColor=none;" parent="xKT0m7g9uOmXzZgmu-4E-98" connectable="0" vertex="1">
          <mxGeometry x="1" relative="1" as="geometry">
            <mxPoint x="120" y="-172" as="offset" />
          </mxGeometry>
        </mxCell>
        <mxCell id="xKT0m7g9uOmXzZgmu-4E-100" value="" style="endArrow=none;html=1;rounded=0;align=center;verticalAlign=top;endFill=0;labelBackgroundColor=none;entryX=0;entryY=0;entryDx=139.325;entryDy=0;entryPerimeter=0;exitX=0;exitY=0;exitDx=245;exitDy=330;exitPerimeter=0;" parent="1" source="xKT0m7g9uOmXzZgmu-4E-27" target="xKT0m7g9uOmXzZgmu-4E-16" edge="1">
          <mxGeometry relative="1" as="geometry">
            <mxPoint x="2220" y="1450" as="sourcePoint" />
            <mxPoint x="2040" y="1201" as="targetPoint" />
          </mxGeometry>
        </mxCell>
        <mxCell id="xKT0m7g9uOmXzZgmu-4E-102" value="" style="endArrow=none;html=1;rounded=0;align=center;verticalAlign=top;endFill=0;labelBackgroundColor=none;exitX=0;exitY=0;exitDx=0;exitDy=0;exitPerimeter=0;entryX=1;entryY=1;entryDx=0;entryDy=0;entryPerimeter=0;" parent="1" source="WfyLc844VBMPgkh6guR3-68" target="8VfH4JJ4uq1HrNAevUR7-113" edge="1">
          <mxGeometry relative="1" as="geometry">
            <mxPoint x="2230" y="1070" as="sourcePoint" />
            <mxPoint x="2040" y="1201" as="targetPoint" />
            <Array as="points">
              <mxPoint x="1570" y="1600" />
            </Array>
          </mxGeometry>
        </mxCell>
        <mxCell id="xKT0m7g9uOmXzZgmu-4E-103" value="&amp;lt;&amp;lt;Protocol&amp;gt;&amp;gt;&lt;br&gt;&lt;div style=&quot;text-align: center;&quot;&gt;&lt;span style=&quot;background-color: initial;&quot;&gt;HTTPS&lt;/span&gt;&lt;/div&gt;" style="resizable=0;html=1;align=right;verticalAlign=bottom;labelBackgroundColor=none;" parent="xKT0m7g9uOmXzZgmu-4E-102" connectable="0" vertex="1">
          <mxGeometry x="1" relative="1" as="geometry">
            <mxPoint x="-70" y="180" as="offset" />
          </mxGeometry>
        </mxCell>
        <mxCell id="xKT0m7g9uOmXzZgmu-4E-106" value="" style="endArrow=none;html=1;rounded=0;align=center;verticalAlign=top;endFill=0;labelBackgroundColor=none;entryX=0;entryY=0;entryDx=470;entryDy=0;entryPerimeter=0;exitX=0;exitY=0;exitDx=5;exitDy=325;exitPerimeter=0;" parent="1" source="xKT0m7g9uOmXzZgmu-4E-27" target="8VfH4JJ4uq1HrNAevUR7-113" edge="1">
          <mxGeometry relative="1" as="geometry">
            <mxPoint x="2220" y="1210" as="sourcePoint" />
            <mxPoint x="1710" y="1070" as="targetPoint" />
          </mxGeometry>
        </mxCell>
        <mxCell id="xKT0m7g9uOmXzZgmu-4E-107" value="&amp;lt;&amp;lt;Protocol&amp;gt;&amp;gt;&lt;br&gt;&lt;div style=&quot;text-align: center;&quot;&gt;&lt;span style=&quot;background-color: initial;&quot;&gt;HTTPS&lt;/span&gt;&lt;/div&gt;" style="resizable=0;html=1;align=right;verticalAlign=bottom;labelBackgroundColor=none;" parent="xKT0m7g9uOmXzZgmu-4E-106" connectable="0" vertex="1">
          <mxGeometry x="1" relative="1" as="geometry">
            <mxPoint x="100" y="399" as="offset" />
          </mxGeometry>
        </mxCell>
        <mxCell id="xKT0m7g9uOmXzZgmu-4E-108" value="" style="endArrow=none;html=1;rounded=0;align=center;verticalAlign=top;endFill=0;labelBackgroundColor=none;exitX=0;exitY=0;exitDx=245;exitDy=330;exitPerimeter=0;entryX=0;entryY=0;entryDx=235;entryDy=0;entryPerimeter=0;" parent="1" source="xKT0m7g9uOmXzZgmu-4E-2" target="8VfH4JJ4uq1HrNAevUR7-113" edge="1">
          <mxGeometry relative="1" as="geometry">
            <mxPoint x="1500" y="842" as="sourcePoint" />
            <mxPoint x="2030" y="830" as="targetPoint" />
          </mxGeometry>
        </mxCell>
        <mxCell id="xKT0m7g9uOmXzZgmu-4E-109" value="&amp;lt;&amp;lt;Protocol&amp;gt;&amp;gt;&lt;br&gt;&lt;div style=&quot;text-align: center;&quot;&gt;&lt;span style=&quot;background-color: initial;&quot;&gt;HTTPS&lt;/span&gt;&lt;/div&gt;" style="resizable=0;html=1;align=right;verticalAlign=bottom;labelBackgroundColor=none;" parent="xKT0m7g9uOmXzZgmu-4E-108" connectable="0" vertex="1">
          <mxGeometry x="1" relative="1" as="geometry">
            <mxPoint x="121" y="45" as="offset" />
          </mxGeometry>
        </mxCell>
        <mxCell id="xKT0m7g9uOmXzZgmu-4E-110" value="" style="endArrow=none;html=1;rounded=0;align=center;verticalAlign=top;endFill=0;labelBackgroundColor=none;exitX=0;exitY=0;exitDx=475;exitDy=5;exitPerimeter=0;entryX=0;entryY=0;entryDx=5;entryDy=325;entryPerimeter=0;" parent="1" source="xKT0m7g9uOmXzZgmu-4E-53" target="xKT0m7g9uOmXzZgmu-4E-16" edge="1">
          <mxGeometry relative="1" as="geometry">
            <mxPoint x="2230" y="835" as="sourcePoint" />
            <mxPoint x="2040" y="825" as="targetPoint" />
          </mxGeometry>
        </mxCell>
        <mxCell id="xKT0m7g9uOmXzZgmu-4E-111" value="&amp;lt;&amp;lt;Protocol&amp;gt;&amp;gt;&lt;br&gt;&lt;div style=&quot;text-align: center;&quot;&gt;&lt;span style=&quot;background-color: initial;&quot;&gt;HTTPS&lt;/span&gt;&lt;/div&gt;" style="resizable=0;html=1;align=right;verticalAlign=bottom;labelBackgroundColor=none;" parent="xKT0m7g9uOmXzZgmu-4E-110" connectable="0" vertex="1">
          <mxGeometry x="1" relative="1" as="geometry">
            <mxPoint x="956" y="210" as="offset" />
          </mxGeometry>
        </mxCell>
        <mxCell id="xKT0m7g9uOmXzZgmu-4E-112" value="" style="endArrow=none;html=1;rounded=0;align=center;verticalAlign=top;endFill=0;labelBackgroundColor=none;exitX=0;exitY=0;exitDx=235;exitDy=0;exitPerimeter=0;entryX=0;entryY=0;entryDx=149.325;entryDy=330;entryPerimeter=0;" parent="1" source="xKT0m7g9uOmXzZgmu-4E-40" target="xKT0m7g9uOmXzZgmu-4E-16" edge="1">
          <mxGeometry relative="1" as="geometry">
            <mxPoint x="1500" y="842" as="sourcePoint" />
            <mxPoint x="1710" y="835" as="targetPoint" />
          </mxGeometry>
        </mxCell>
        <mxCell id="xKT0m7g9uOmXzZgmu-4E-113" value="&amp;lt;&amp;lt;Protocol&amp;gt;&amp;gt;&lt;br&gt;&lt;div style=&quot;text-align: center;&quot;&gt;&lt;span style=&quot;background-color: initial;&quot;&gt;HTTPS&lt;/span&gt;&lt;/div&gt;" style="resizable=0;html=1;align=right;verticalAlign=bottom;labelBackgroundColor=none;" parent="xKT0m7g9uOmXzZgmu-4E-112" connectable="0" vertex="1">
          <mxGeometry x="1" relative="1" as="geometry">
            <mxPoint x="-100" y="6" as="offset" />
          </mxGeometry>
        </mxCell>
        <mxCell id="xKT0m7g9uOmXzZgmu-4E-114" value="" style="endArrow=none;html=1;rounded=0;align=center;verticalAlign=top;endFill=0;labelBackgroundColor=none;entryX=1;entryY=1;entryDx=0;entryDy=0;entryPerimeter=0;" parent="1" target="xKT0m7g9uOmXzZgmu-4E-27" edge="1">
          <mxGeometry relative="1" as="geometry">
            <mxPoint x="2020" y="2250" as="sourcePoint" />
            <mxPoint x="2210" y="1690" as="targetPoint" />
          </mxGeometry>
        </mxCell>
        <mxCell id="xKT0m7g9uOmXzZgmu-4E-115" value="&amp;lt;&amp;lt;Protocol&amp;gt;&amp;gt;&lt;br&gt;&lt;div style=&quot;text-align: center;&quot;&gt;&lt;span style=&quot;background-color: initial;&quot;&gt;HTTPS&lt;/span&gt;&lt;/div&gt;" style="resizable=0;html=1;align=right;verticalAlign=bottom;labelBackgroundColor=none;" parent="xKT0m7g9uOmXzZgmu-4E-114" connectable="0" vertex="1">
          <mxGeometry x="1" relative="1" as="geometry">
            <mxPoint x="-80" y="546" as="offset" />
          </mxGeometry>
        </mxCell>
        <mxCell id="xKT0m7g9uOmXzZgmu-4E-116" value="" style="endArrow=none;html=1;rounded=0;align=center;verticalAlign=top;endFill=0;labelBackgroundColor=none;exitX=0;exitY=0;exitDx=475;exitDy=5;exitPerimeter=0;entryX=0;entryY=0;entryDx=241.54;entryDy=330;entryPerimeter=0;" parent="1" source="xKT0m7g9uOmXzZgmu-4E-40" edge="1" target="xKT0m7g9uOmXzZgmu-4E-66">
          <mxGeometry relative="1" as="geometry">
            <mxPoint x="2230" y="1435" as="sourcePoint" />
            <mxPoint x="1700" y="2070" as="targetPoint" />
          </mxGeometry>
        </mxCell>
        <mxCell id="xKT0m7g9uOmXzZgmu-4E-117" value="&amp;lt;&amp;lt;Protocol&amp;gt;&amp;gt;&lt;br&gt;&lt;div style=&quot;text-align: center;&quot;&gt;&lt;span style=&quot;background-color: initial;&quot;&gt;HTTPS&lt;/span&gt;&lt;/div&gt;" style="resizable=0;html=1;align=right;verticalAlign=bottom;labelBackgroundColor=none;" parent="xKT0m7g9uOmXzZgmu-4E-116" connectable="0" vertex="1">
          <mxGeometry x="1" relative="1" as="geometry">
            <mxPoint x="-40" y="-49" as="offset" />
          </mxGeometry>
        </mxCell>
        <mxCell id="xKT0m7g9uOmXzZgmu-4E-118" value="" style="endArrow=none;html=1;rounded=0;align=center;verticalAlign=top;endFill=0;labelBackgroundColor=none;exitX=0;exitY=0;exitDx=149.325;exitDy=330;exitPerimeter=0;entryX=0;entryY=0;entryDx=235.00000000000003;entryDy=0;entryPerimeter=0;" parent="1" source="xKT0m7g9uOmXzZgmu-4E-84" target="xKT0m7g9uOmXzZgmu-4E-2" edge="1">
          <mxGeometry relative="1" as="geometry">
            <mxPoint x="2230" y="835" as="sourcePoint" />
            <mxPoint x="2040" y="825" as="targetPoint" />
          </mxGeometry>
        </mxCell>
        <mxCell id="xKT0m7g9uOmXzZgmu-4E-119" value="&amp;lt;&amp;lt;Protocol&amp;gt;&amp;gt;&lt;br&gt;&lt;div style=&quot;text-align: center;&quot;&gt;&lt;span style=&quot;background-color: initial;&quot;&gt;HTTPS&lt;/span&gt;&lt;/div&gt;" style="resizable=0;html=1;align=right;verticalAlign=bottom;labelBackgroundColor=none;" parent="xKT0m7g9uOmXzZgmu-4E-118" connectable="0" vertex="1">
          <mxGeometry x="1" relative="1" as="geometry">
            <mxPoint x="121" y="45" as="offset" />
          </mxGeometry>
        </mxCell>
        <mxCell id="xKT0m7g9uOmXzZgmu-4E-120" value="" style="group;fillColor=#B9E0A5;" parent="1" vertex="1" connectable="0">
          <mxGeometry x="2700" y="660" width="330" height="288.65" as="geometry" />
        </mxCell>
        <mxCell id="xKT0m7g9uOmXzZgmu-4E-84" value="" style="verticalAlign=top;align=left;spacingTop=8;spacingLeft=2;spacingRight=12;shape=cube;size=10;direction=south;fontStyle=4;html=1;rounded=0;shadow=0;comic=0;labelBackgroundColor=none;strokeWidth=1;fontFamily=Verdana;fontSize=12;fillColor=#B9E0A5;" parent="xKT0m7g9uOmXzZgmu-4E-120" vertex="1">
          <mxGeometry width="330" height="288.65" as="geometry" />
        </mxCell>
        <UserObject label="&amp;lt;&amp;lt;Device&amp;gt;&amp;gt;&lt;br&gt;DatabaseServer" placeholders="1" name="Variable" id="xKT0m7g9uOmXzZgmu-4E-85">
          <mxCell style="text;html=1;strokeColor=none;fillColor=none;align=center;verticalAlign=middle;whiteSpace=wrap;overflow=hidden;" parent="xKT0m7g9uOmXzZgmu-4E-120" vertex="1">
            <mxGeometry x="115" y="2.009999999999991" width="90" height="48.63" as="geometry" />
          </mxCell>
        </UserObject>
        <mxCell id="xKT0m7g9uOmXzZgmu-4E-86" value="" style="verticalAlign=top;align=left;spacingTop=8;spacingLeft=2;spacingRight=12;shape=cube;size=10;direction=south;fontStyle=4;html=1;rounded=0;shadow=0;comic=0;labelBackgroundColor=none;strokeWidth=1;fontFamily=Verdana;fontSize=12" parent="xKT0m7g9uOmXzZgmu-4E-120" vertex="1">
          <mxGeometry x="25" y="50.23000000000002" width="280" height="218.42" as="geometry" />
        </mxCell>
        <UserObject label="&amp;lt;&amp;lt;OS&amp;gt;&amp;gt;&lt;br&gt;" placeholders="1" name="Variable" id="xKT0m7g9uOmXzZgmu-4E-87">
          <mxCell style="text;html=1;strokeColor=none;fillColor=none;align=center;verticalAlign=middle;whiteSpace=wrap;overflow=hidden;" parent="xKT0m7g9uOmXzZgmu-4E-120" vertex="1">
            <mxGeometry x="77.5" y="50.63588421052634" width="165" height="37.43504210526316" as="geometry" />
          </mxCell>
        </UserObject>
        <mxCell id="xKT0m7g9uOmXzZgmu-4E-88" value="" style="verticalAlign=top;align=left;spacingTop=8;spacingLeft=2;spacingRight=12;shape=cube;size=10;direction=south;fontStyle=4;html=1;rounded=0;shadow=0;comic=0;labelBackgroundColor=none;strokeWidth=1;fontFamily=Verdana;fontSize=12" parent="xKT0m7g9uOmXzZgmu-4E-120" vertex="1">
          <mxGeometry x="42.5" y="88.06999999999994" width="235" height="160.58" as="geometry" />
        </mxCell>
        <UserObject label="&amp;lt;&amp;lt;ExecutionEnvironment&amp;gt;&amp;gt;&lt;br&gt;ClusteredDBMS" placeholders="1" name="Variable" id="xKT0m7g9uOmXzZgmu-4E-89">
          <mxCell style="text;html=1;strokeColor=none;fillColor=none;align=center;verticalAlign=middle;whiteSpace=wrap;overflow=hidden;" parent="xKT0m7g9uOmXzZgmu-4E-120" vertex="1">
            <mxGeometry x="30" y="104.05999999999995" width="250" height="30.99" as="geometry" />
          </mxCell>
        </UserObject>
        <mxCell id="xKT0m7g9uOmXzZgmu-4E-90" value="User Database" style="shape=note2;boundedLbl=1;whiteSpace=wrap;html=1;size=25;verticalAlign=top;align=center;spacingLeft=5;" parent="xKT0m7g9uOmXzZgmu-4E-120" vertex="1">
          <mxGeometry x="100" y="151.53999999999996" width="120" height="77.11" as="geometry" />
        </mxCell>
        <mxCell id="xKT0m7g9uOmXzZgmu-4E-91" value="&amp;lt;&amp;lt;artifact&amp;gt;&amp;gt;" style="resizeWidth=1;part=1;strokeColor=none;fillColor=none;align=left;spacingLeft=5;html=1;whiteSpace=wrap;" parent="xKT0m7g9uOmXzZgmu-4E-90" vertex="1">
          <mxGeometry width="120" height="25" relative="1" as="geometry" />
        </mxCell>
        <mxCell id="xKT0m7g9uOmXzZgmu-4E-121" value="" style="endArrow=none;html=1;rounded=0;align=center;verticalAlign=top;endFill=0;labelBackgroundColor=none;exitX=0;exitY=0;exitDx=149.325;exitDy=330;exitPerimeter=0;entryX=0;entryY=0;entryDx=235;entryDy=0;entryPerimeter=0;" parent="1" source="xKT0m7g9uOmXzZgmu-4E-75" target="xKT0m7g9uOmXzZgmu-4E-27" edge="1">
          <mxGeometry relative="1" as="geometry">
            <mxPoint x="1500" y="842" as="sourcePoint" />
            <mxPoint x="1710" y="835" as="targetPoint" />
          </mxGeometry>
        </mxCell>
        <mxCell id="8VfH4JJ4uq1HrNAevUR7-111" value="1.." style="resizable=0;html=1;align=left;verticalAlign=top;labelBackgroundColor=none;" parent="1" connectable="0" vertex="1">
          <mxGeometry x="2210" y="1070" as="geometry" />
        </mxCell>
        <mxCell id="sIQ3QIApmiIohxYwdnQI-3" value="1.." style="resizable=0;html=1;align=left;verticalAlign=top;labelBackgroundColor=none;" parent="1" connectable="0" vertex="1">
          <mxGeometry x="1510" y="1060" as="geometry" />
        </mxCell>
        <mxCell id="sIQ3QIApmiIohxYwdnQI-6" value="1.." style="resizable=0;html=1;align=left;verticalAlign=top;labelBackgroundColor=none;" parent="1" connectable="0" vertex="1">
          <mxGeometry x="1865" y="1070" as="geometry" />
        </mxCell>
        <mxCell id="sIQ3QIApmiIohxYwdnQI-7" value="1.." style="resizable=0;html=1;align=left;verticalAlign=top;labelBackgroundColor=none;" parent="1" connectable="0" vertex="1">
          <mxGeometry x="1511" y="1424" as="geometry" />
        </mxCell>
        <mxCell id="sIQ3QIApmiIohxYwdnQI-8" value="1.." style="resizable=0;html=1;align=left;verticalAlign=top;labelBackgroundColor=none;" parent="1" connectable="0" vertex="1">
          <mxGeometry x="2180" y="1430" as="geometry" />
        </mxCell>
        <mxCell id="sIQ3QIApmiIohxYwdnQI-10" value="&amp;lt;&amp;lt;Protocol&amp;gt;&amp;gt;&lt;br&gt;&lt;div style=&quot;text-align: center;&quot;&gt;&lt;span style=&quot;background-color: initial;&quot;&gt;HTTPS&lt;/span&gt;&lt;/div&gt;" style="resizable=0;html=1;align=right;verticalAlign=bottom;labelBackgroundColor=none;" parent="1" connectable="0" vertex="1">
          <mxGeometry x="2150.041859939443" y="1240.0028091417255" as="geometry" />
        </mxCell>
        <mxCell id="sIQ3QIApmiIohxYwdnQI-11" value="&amp;lt;&amp;lt;Protocol&amp;gt;&amp;gt;&lt;br&gt;&lt;div style=&quot;text-align: center;&quot;&gt;&lt;span style=&quot;background-color: initial;&quot;&gt;HTTPS&lt;/span&gt;&lt;/div&gt;" style="resizable=0;html=1;align=right;verticalAlign=bottom;labelBackgroundColor=none;" parent="1" connectable="0" vertex="1">
          <mxGeometry x="1419.9990618849856" y="1920.0011097747592" as="geometry" />
        </mxCell>
        <mxCell id="sIQ3QIApmiIohxYwdnQI-12" value="" style="endArrow=none;html=1;rounded=0;align=center;verticalAlign=top;endFill=0;labelBackgroundColor=none;exitX=1.009;exitY=0.818;exitDx=0;exitDy=0;exitPerimeter=0;entryX=0.028;entryY=0.788;entryDx=0;entryDy=0;entryPerimeter=0;" parent="1" source="xKT0m7g9uOmXzZgmu-4E-16" target="xKT0m7g9uOmXzZgmu-4E-66" edge="1">
          <mxGeometry relative="1" as="geometry">
            <mxPoint x="1870" y="1070" as="sourcePoint" />
            <mxPoint x="1760" y="1970" as="targetPoint" />
          </mxGeometry>
        </mxCell>
        <mxCell id="sIQ3QIApmiIohxYwdnQI-13" value="&amp;lt;&amp;lt;Protocol&amp;gt;&amp;gt;&lt;br&gt;&lt;div style=&quot;text-align: center;&quot;&gt;&lt;span style=&quot;background-color: initial;&quot;&gt;HTTPS&lt;/span&gt;&lt;/div&gt;" style="resizable=0;html=1;align=right;verticalAlign=bottom;labelBackgroundColor=none;" parent="sIQ3QIApmiIohxYwdnQI-12" connectable="0" vertex="1">
          <mxGeometry x="1" relative="1" as="geometry">
            <mxPoint x="-5" y="-83" as="offset" />
          </mxGeometry>
        </mxCell>
        <mxCell id="sIQ3QIApmiIohxYwdnQI-31" value="" style="group" parent="1" vertex="1" connectable="0">
          <mxGeometry x="1810" y="1660" width="279.96" height="440" as="geometry" />
        </mxCell>
        <mxCell id="sIQ3QIApmiIohxYwdnQI-32" value="" style="verticalAlign=top;align=left;spacingTop=8;spacingLeft=2;spacingRight=12;shape=cube;size=10;direction=south;fontStyle=4;html=1;rounded=0;shadow=0;comic=0;labelBackgroundColor=none;strokeWidth=1;fontFamily=Verdana;fontSize=12;fillColor=#C3ABD0;" parent="sIQ3QIApmiIohxYwdnQI-31" vertex="1">
          <mxGeometry y="20.421739130434784" width="279.96" height="276.09999999999997" as="geometry" />
        </mxCell>
        <UserObject label="&amp;lt;&amp;lt;Device&amp;gt;&amp;gt;&lt;br&gt;SlaveServiceRegistryServer" placeholders="1" name="Variable" id="sIQ3QIApmiIohxYwdnQI-33">
          <mxCell style="text;html=1;strokeColor=none;fillColor=none;align=center;verticalAlign=middle;whiteSpace=wrap;overflow=hidden;" parent="sIQ3QIApmiIohxYwdnQI-31" vertex="1">
            <mxGeometry x="50" y="22.34" width="170" height="46.52" as="geometry" />
          </mxCell>
        </UserObject>
        <mxCell id="sIQ3QIApmiIohxYwdnQI-34" value="" style="verticalAlign=top;align=left;spacingTop=8;spacingLeft=2;spacingRight=12;shape=cube;size=10;direction=south;fontStyle=4;html=1;rounded=0;shadow=0;comic=0;labelBackgroundColor=none;strokeWidth=1;fontFamily=Verdana;fontSize=12" parent="sIQ3QIApmiIohxYwdnQI-31" vertex="1">
          <mxGeometry x="21.209090909090907" y="68.46782608695652" width="237.54181818181814" height="208.92347826086956" as="geometry" />
        </mxCell>
        <UserObject label="&amp;lt;&amp;lt;OS&amp;gt;&amp;gt;&lt;br&gt;" placeholders="1" name="Variable" id="sIQ3QIApmiIohxYwdnQI-35">
          <mxCell style="text;html=1;strokeColor=none;fillColor=none;align=center;verticalAlign=middle;whiteSpace=wrap;overflow=hidden;" parent="sIQ3QIApmiIohxYwdnQI-31" vertex="1">
            <mxGeometry x="65.74818181818182" y="68.85606315789474" width="139.98" height="35.807431578947366" as="geometry" />
          </mxCell>
        </UserObject>
        <mxCell id="sIQ3QIApmiIohxYwdnQI-36" value="" style="verticalAlign=top;align=left;spacingTop=8;spacingLeft=2;spacingRight=12;shape=cube;size=10;direction=south;fontStyle=4;html=1;rounded=0;shadow=0;comic=0;labelBackgroundColor=none;strokeWidth=1;fontFamily=Verdana;fontSize=12" parent="sIQ3QIApmiIohxYwdnQI-31" vertex="1">
          <mxGeometry x="36.055454545454545" y="104.66260869565217" width="199.36545454545455" height="153.59826086956522" as="geometry" />
        </mxCell>
        <UserObject label="&amp;lt;&amp;lt;ExecutionEnvironment&amp;gt;&amp;gt;" placeholders="1" name="Variable" id="sIQ3QIApmiIohxYwdnQI-37">
          <mxCell style="text;html=1;strokeColor=none;fillColor=none;align=center;verticalAlign=middle;whiteSpace=wrap;overflow=hidden;" parent="sIQ3QIApmiIohxYwdnQI-31" vertex="1">
            <mxGeometry x="57.14" y="119.96" width="155.73" height="29.64" as="geometry" />
          </mxCell>
        </UserObject>
        <mxCell id="sIQ3QIApmiIohxYwdnQI-38" value="Service Discovery Module" style="shape=note2;boundedLbl=1;whiteSpace=wrap;html=1;size=25;verticalAlign=top;align=center;spacingLeft=5;" parent="sIQ3QIApmiIohxYwdnQI-31" vertex="1">
          <mxGeometry x="84.84" y="149.6" width="101.8" height="84.63" as="geometry" />
        </mxCell>
        <mxCell id="sIQ3QIApmiIohxYwdnQI-39" value="&amp;lt;&amp;lt;artifact&amp;gt;&amp;gt;" style="resizeWidth=1;part=1;strokeColor=none;fillColor=none;align=left;spacingLeft=5;html=1;whiteSpace=wrap;" parent="sIQ3QIApmiIohxYwdnQI-38" vertex="1">
          <mxGeometry width="101.8" height="25" relative="1" as="geometry" />
        </mxCell>
        <mxCell id="sIQ3QIApmiIohxYwdnQI-42" value="1.." style="resizable=0;html=1;align=left;verticalAlign=top;labelBackgroundColor=none;" parent="sIQ3QIApmiIohxYwdnQI-31" connectable="0" vertex="1">
          <mxGeometry x="110" y="-10" as="geometry" />
        </mxCell>
        <mxCell id="sIQ3QIApmiIohxYwdnQI-40" value="" style="endArrow=none;html=1;rounded=0;align=center;verticalAlign=top;endFill=0;labelBackgroundColor=none;exitX=1.009;exitY=0.261;exitDx=0;exitDy=0;exitPerimeter=0;entryX=0.5;entryY=0;entryDx=0;entryDy=0;" parent="1" source="xKT0m7g9uOmXzZgmu-4E-16" target="sIQ3QIApmiIohxYwdnQI-33" edge="1">
          <mxGeometry relative="1" as="geometry">
            <mxPoint x="1770" y="1553" as="sourcePoint" />
            <mxPoint x="1770" y="1980" as="targetPoint" />
          </mxGeometry>
        </mxCell>
        <mxCell id="sIQ3QIApmiIohxYwdnQI-41" value="&amp;lt;&amp;lt;Protocol&amp;gt;&amp;gt;&lt;br&gt;&lt;div style=&quot;text-align: center;&quot;&gt;&lt;span style=&quot;background-color: initial;&quot;&gt;HTTPS&lt;/span&gt;&lt;/div&gt;" style="resizable=0;html=1;align=right;verticalAlign=bottom;labelBackgroundColor=none;" parent="sIQ3QIApmiIohxYwdnQI-40" connectable="0" vertex="1">
          <mxGeometry x="1" relative="1" as="geometry">
            <mxPoint x="84" y="-32" as="offset" />
          </mxGeometry>
        </mxCell>
        <mxCell id="sIQ3QIApmiIohxYwdnQI-44" value="1.." style="resizable=0;html=1;align=left;verticalAlign=top;labelBackgroundColor=none;" parent="1" connectable="0" vertex="1">
          <mxGeometry x="2680" y="779.9999999999999" as="geometry" />
        </mxCell>
        <mxCell id="sIQ3QIApmiIohxYwdnQI-45" value="1.." style="resizable=0;html=1;align=left;verticalAlign=top;labelBackgroundColor=none;" parent="1" connectable="0" vertex="1">
          <mxGeometry x="2680" y="1390" as="geometry" />
        </mxCell>
        <mxCell id="WfyLc844VBMPgkh6guR3-67" value="" style="group" parent="1" vertex="1" connectable="0">
          <mxGeometry x="1060" y="1960" width="330" height="700" as="geometry" />
        </mxCell>
        <mxCell id="WfyLc844VBMPgkh6guR3-68" value="" style="verticalAlign=top;align=left;spacingTop=8;spacingLeft=2;spacingRight=12;shape=cube;size=10;direction=south;fontStyle=4;html=1;rounded=0;shadow=0;comic=0;labelBackgroundColor=none;strokeWidth=1;fontFamily=Verdana;fontSize=12;fillColor=#C3ABD0;" parent="WfyLc844VBMPgkh6guR3-67" vertex="1">
          <mxGeometry y="28" width="330" height="652" as="geometry" />
        </mxCell>
        <UserObject label="&amp;lt;&amp;lt;Device&amp;gt;&amp;gt;&lt;br&gt;QueueServer" placeholders="1" name="Variable" id="WfyLc844VBMPgkh6guR3-69">
          <mxCell style="text;html=1;strokeColor=none;fillColor=none;align=center;verticalAlign=middle;whiteSpace=wrap;overflow=hidden;" parent="WfyLc844VBMPgkh6guR3-67" vertex="1">
            <mxGeometry x="95" y="27.999999999999996" width="140" height="74.004" as="geometry" />
          </mxCell>
        </UserObject>
        <mxCell id="WfyLc844VBMPgkh6guR3-70" value="" style="verticalAlign=top;align=left;spacingTop=8;spacingLeft=2;spacingRight=12;shape=cube;size=10;direction=south;fontStyle=4;html=1;rounded=0;shadow=0;comic=0;labelBackgroundColor=none;strokeWidth=1;fontFamily=Verdana;fontSize=12" parent="WfyLc844VBMPgkh6guR3-67" vertex="1">
          <mxGeometry x="25" y="98" width="280" height="560" as="geometry" />
        </mxCell>
        <mxCell id="WfyLc844VBMPgkh6guR3-71" value="" style="verticalAlign=top;align=left;spacingTop=8;spacingLeft=2;spacingRight=12;shape=cube;size=10;direction=south;fontStyle=4;html=1;rounded=0;shadow=0;comic=0;labelBackgroundColor=none;strokeWidth=1;fontFamily=Verdana;fontSize=12" parent="WfyLc844VBMPgkh6guR3-67" vertex="1">
          <mxGeometry x="42.5" y="166.50410958904106" width="235" height="475.9616438356164" as="geometry" />
        </mxCell>
        <UserObject label="&amp;lt;&amp;lt;ExecutionEnvironment&amp;gt;&amp;gt;&lt;br&gt;Docker" placeholders="1" name="Variable" id="WfyLc844VBMPgkh6guR3-72">
          <mxCell style="text;html=1;strokeColor=none;fillColor=none;align=center;verticalAlign=middle;whiteSpace=wrap;overflow=hidden;" parent="WfyLc844VBMPgkh6guR3-67" vertex="1">
            <mxGeometry x="82.5" y="119.35" width="165" height="47.151999999999994" as="geometry" />
          </mxCell>
        </UserObject>
        <UserObject label="&amp;lt;&amp;lt;Container&amp;gt;&amp;gt;&lt;br&gt;QueueService" placeholders="1" name="Variable" id="WfyLc844VBMPgkh6guR3-73">
          <mxCell style="text;html=1;strokeColor=none;fillColor=none;align=center;verticalAlign=middle;whiteSpace=wrap;overflow=hidden;" parent="WfyLc844VBMPgkh6guR3-67" vertex="1">
            <mxGeometry x="82.5" y="181.99999999999997" width="165" height="47.151999999999994" as="geometry" />
          </mxCell>
        </UserObject>
        <mxCell id="WfyLc844VBMPgkh6guR3-83" value="" style="verticalAlign=top;align=left;spacingTop=8;spacingLeft=2;spacingRight=12;shape=cube;size=10;direction=south;fontStyle=4;html=1;rounded=0;shadow=0;comic=0;labelBackgroundColor=none;strokeWidth=1;fontFamily=Verdana;fontSize=12" parent="WfyLc844VBMPgkh6guR3-67" vertex="1">
          <mxGeometry x="75" y="507.0301369863011" width="170" height="115.06849315068493" as="geometry" />
        </mxCell>
        <UserObject label="&amp;lt;&amp;lt;Image&amp;gt;&amp;gt;&lt;br style=&quot;border-color: var(--border-color);&quot;&gt;NotificationQueue" placeholders="1" name="Variable" id="WfyLc844VBMPgkh6guR3-84">
          <mxCell style="text;html=1;strokeColor=none;fillColor=none;align=center;verticalAlign=middle;whiteSpace=wrap;overflow=hidden;" parent="WfyLc844VBMPgkh6guR3-67" vertex="1">
            <mxGeometry x="75" y="519.0835616438355" width="165" height="32.295890410958904" as="geometry" />
          </mxCell>
        </UserObject>
        <mxCell id="WfyLc844VBMPgkh6guR3-85" value="Queue Module" style="shape=note2;boundedLbl=1;whiteSpace=wrap;html=1;size=25;verticalAlign=top;align=center;spacingLeft=5;" parent="WfyLc844VBMPgkh6guR3-67" vertex="1">
          <mxGeometry x="97.5" y="557.4397260273971" width="120" height="57.534246575342465" as="geometry" />
        </mxCell>
        <mxCell id="WfyLc844VBMPgkh6guR3-86" value="&amp;lt;&amp;lt;artifact&amp;gt;&amp;gt;" style="resizeWidth=1;part=1;strokeColor=none;fillColor=none;align=left;spacingLeft=5;html=1;whiteSpace=wrap;" parent="WfyLc844VBMPgkh6guR3-85" vertex="1">
          <mxGeometry width="120" height="25" relative="1" as="geometry" />
        </mxCell>
        <mxCell id="WfyLc844VBMPgkh6guR3-92" value="" style="verticalAlign=top;align=left;spacingTop=8;spacingLeft=2;spacingRight=12;shape=cube;size=10;direction=south;fontStyle=4;html=1;rounded=0;shadow=0;comic=0;labelBackgroundColor=none;strokeWidth=1;fontFamily=Verdana;fontSize=12" parent="WfyLc844VBMPgkh6guR3-67" vertex="1">
          <mxGeometry x="75" y="397.71506849315045" width="170" height="115.06849315068493" as="geometry" />
        </mxCell>
        <UserObject label="&amp;lt;&amp;lt;Image&amp;gt;&amp;gt;&lt;br style=&quot;border-color: var(--border-color);&quot;&gt;SubmissionQueue" placeholders="1" name="Variable" id="WfyLc844VBMPgkh6guR3-93">
          <mxCell style="text;html=1;strokeColor=none;fillColor=none;align=center;verticalAlign=middle;whiteSpace=wrap;overflow=hidden;" parent="WfyLc844VBMPgkh6guR3-67" vertex="1">
            <mxGeometry x="75" y="407.3041095890408" width="165" height="32.295890410958904" as="geometry" />
          </mxCell>
        </UserObject>
        <mxCell id="WfyLc844VBMPgkh6guR3-94" value="Queue Module" style="shape=note2;boundedLbl=1;whiteSpace=wrap;html=1;size=25;verticalAlign=top;align=center;spacingLeft=5;" parent="WfyLc844VBMPgkh6guR3-67" vertex="1">
          <mxGeometry x="100" y="445.6602739726025" width="120" height="57.534246575342465" as="geometry" />
        </mxCell>
        <mxCell id="WfyLc844VBMPgkh6guR3-95" value="&amp;lt;&amp;lt;artifact&amp;gt;&amp;gt;" style="resizeWidth=1;part=1;strokeColor=none;fillColor=none;align=left;spacingLeft=5;html=1;whiteSpace=wrap;" parent="WfyLc844VBMPgkh6guR3-94" vertex="1">
          <mxGeometry width="120" height="25" relative="1" as="geometry" />
        </mxCell>
        <mxCell id="WfyLc844VBMPgkh6guR3-87" value="" style="verticalAlign=top;align=left;spacingTop=8;spacingLeft=2;spacingRight=12;shape=cube;size=10;direction=south;fontStyle=4;html=1;rounded=0;shadow=0;comic=0;labelBackgroundColor=none;strokeWidth=1;fontFamily=Verdana;fontSize=12" parent="WfyLc844VBMPgkh6guR3-67" vertex="1">
          <mxGeometry x="75" y="288.4000000000002" width="170" height="115.06849315068493" as="geometry" />
        </mxCell>
        <UserObject label="&amp;lt;&amp;lt;Image&amp;gt;&amp;gt;&lt;br style=&quot;border-color: var(--border-color);&quot;&gt;EventQueue" placeholders="1" name="Variable" id="WfyLc844VBMPgkh6guR3-96">
          <mxCell style="text;html=1;strokeColor=none;fillColor=none;align=center;verticalAlign=middle;whiteSpace=wrap;overflow=hidden;" parent="WfyLc844VBMPgkh6guR3-67" vertex="1">
            <mxGeometry x="77.5" y="298.5356164383561" width="165" height="32.295890410958904" as="geometry" />
          </mxCell>
        </UserObject>
        <mxCell id="WfyLc844VBMPgkh6guR3-97" value="Queue Module" style="shape=note2;boundedLbl=1;whiteSpace=wrap;html=1;size=25;verticalAlign=top;align=center;spacingLeft=5;" parent="WfyLc844VBMPgkh6guR3-67" vertex="1">
          <mxGeometry x="100" y="336.89178082191773" width="120" height="57.534246575342465" as="geometry" />
        </mxCell>
        <mxCell id="WfyLc844VBMPgkh6guR3-98" value="&amp;lt;&amp;lt;artifact&amp;gt;&amp;gt;" style="resizeWidth=1;part=1;strokeColor=none;fillColor=none;align=left;spacingLeft=5;html=1;whiteSpace=wrap;" parent="WfyLc844VBMPgkh6guR3-97" vertex="1">
          <mxGeometry width="120" height="25" relative="1" as="geometry" />
        </mxCell>
        <mxCell id="WfyLc844VBMPgkh6guR3-74" value="" style="verticalAlign=top;align=left;spacingTop=8;spacingLeft=2;spacingRight=12;shape=cube;size=10;direction=south;fontStyle=4;html=1;rounded=0;shadow=0;comic=0;labelBackgroundColor=none;strokeWidth=1;fontFamily=Verdana;fontSize=12" parent="WfyLc844VBMPgkh6guR3-67" vertex="1">
          <mxGeometry x="75" y="229.152" width="170" height="64.848" as="geometry" />
        </mxCell>
        <UserObject label="&amp;lt;&amp;lt;Image&amp;gt;&amp;gt;&lt;br style=&quot;border-color: var(--border-color);&quot;&gt;LightweigthOS" placeholders="1" name="Variable" id="WfyLc844VBMPgkh6guR3-76">
          <mxCell style="text;html=1;strokeColor=none;fillColor=none;align=center;verticalAlign=middle;whiteSpace=wrap;overflow=hidden;" parent="WfyLc844VBMPgkh6guR3-67" vertex="1">
            <mxGeometry x="75" y="241.24800000000005" width="165" height="47.151999999999994" as="geometry" />
          </mxCell>
        </UserObject>
        <mxCell id="WfyLc844VBMPgkh6guR3-99" value="" style="endArrow=none;html=1;rounded=0;align=center;verticalAlign=top;endFill=0;labelBackgroundColor=none;exitX=1;exitY=1;exitDx=0;exitDy=0;exitPerimeter=0;entryX=0.003;entryY=0.909;entryDx=0;entryDy=0;entryPerimeter=0;" parent="1" source="xKT0m7g9uOmXzZgmu-4E-53" target="WfyLc844VBMPgkh6guR3-68" edge="1">
          <mxGeometry relative="1" as="geometry">
            <mxPoint x="1710" y="1550" as="sourcePoint" />
            <mxPoint x="1400" y="1998" as="targetPoint" />
            <Array as="points">
              <mxPoint x="1100" y="1190" />
            </Array>
          </mxGeometry>
        </mxCell>
        <mxCell id="WfyLc844VBMPgkh6guR3-100" value="&amp;lt;&amp;lt;Protocol&amp;gt;&amp;gt;&lt;br&gt;&lt;div style=&quot;text-align: center;&quot;&gt;&lt;span style=&quot;background-color: initial;&quot;&gt;HTTPS&lt;/span&gt;&lt;/div&gt;" style="resizable=0;html=1;align=right;verticalAlign=bottom;labelBackgroundColor=none;" parent="WfyLc844VBMPgkh6guR3-99" connectable="0" vertex="1">
          <mxGeometry x="1" relative="1" as="geometry">
            <mxPoint x="83" y="-79" as="offset" />
          </mxGeometry>
        </mxCell>
        <mxCell id="WfyLc844VBMPgkh6guR3-101" value="" style="endArrow=none;html=1;rounded=0;align=center;verticalAlign=top;endFill=0;labelBackgroundColor=none;exitX=0;exitY=0;exitDx=480;exitDy=170;exitPerimeter=0;entryX=0.5;entryY=0;entryDx=0;entryDy=0;" parent="1" source="xKT0m7g9uOmXzZgmu-4E-40" target="WfyLc844VBMPgkh6guR3-69" edge="1">
          <mxGeometry relative="1" as="geometry">
            <mxPoint x="1710" y="1550" as="sourcePoint" />
            <mxPoint x="1400" y="1998" as="targetPoint" />
          </mxGeometry>
        </mxCell>
        <mxCell id="WfyLc844VBMPgkh6guR3-102" value="&amp;lt;&amp;lt;Protocol&amp;gt;&amp;gt;&lt;br&gt;&lt;div style=&quot;text-align: center;&quot;&gt;&lt;span style=&quot;background-color: initial;&quot;&gt;HTTPS&lt;/span&gt;&lt;/div&gt;" style="resizable=0;html=1;align=right;verticalAlign=bottom;labelBackgroundColor=none;" parent="WfyLc844VBMPgkh6guR3-101" connectable="0" vertex="1">
          <mxGeometry x="1" relative="1" as="geometry">
            <mxPoint x="82" y="-258" as="offset" />
          </mxGeometry>
        </mxCell>
        <mxCell id="9c9x2UA8KeOBQaB1SuDL-2" value="" style="group" vertex="1" connectable="0" parent="1">
          <mxGeometry x="2340" y="2080" width="330" height="500" as="geometry" />
        </mxCell>
        <mxCell id="9c9x2UA8KeOBQaB1SuDL-3" value="" style="verticalAlign=top;align=left;spacingTop=8;spacingLeft=2;spacingRight=12;shape=cube;size=10;direction=south;fontStyle=4;html=1;rounded=0;shadow=0;comic=0;labelBackgroundColor=none;strokeWidth=1;fontFamily=Verdana;fontSize=12;fillColor=#FFCE9F;" vertex="1" parent="9c9x2UA8KeOBQaB1SuDL-2">
          <mxGeometry y="20" width="330" height="480" as="geometry" />
        </mxCell>
        <UserObject label="&amp;lt;&amp;lt;Device&amp;gt;&amp;gt;&lt;br&gt;Server" placeholders="1" name="Variable" id="9c9x2UA8KeOBQaB1SuDL-4">
          <mxCell style="text;html=1;strokeColor=none;fillColor=none;align=center;verticalAlign=middle;whiteSpace=wrap;overflow=hidden;" vertex="1" parent="9c9x2UA8KeOBQaB1SuDL-2">
            <mxGeometry x="95" y="20" width="140" height="52.86" as="geometry" />
          </mxCell>
        </UserObject>
        <mxCell id="9c9x2UA8KeOBQaB1SuDL-5" value="" style="verticalAlign=top;align=left;spacingTop=8;spacingLeft=2;spacingRight=12;shape=cube;size=10;direction=south;fontStyle=4;html=1;rounded=0;shadow=0;comic=0;labelBackgroundColor=none;strokeWidth=1;fontFamily=Verdana;fontSize=12" vertex="1" parent="9c9x2UA8KeOBQaB1SuDL-2">
          <mxGeometry x="25" y="70" width="280" height="400" as="geometry" />
        </mxCell>
        <mxCell id="9c9x2UA8KeOBQaB1SuDL-6" value="" style="verticalAlign=top;align=left;spacingTop=8;spacingLeft=2;spacingRight=12;shape=cube;size=10;direction=south;fontStyle=4;html=1;rounded=0;shadow=0;comic=0;labelBackgroundColor=none;strokeWidth=1;fontFamily=Verdana;fontSize=12" vertex="1" parent="9c9x2UA8KeOBQaB1SuDL-2">
          <mxGeometry x="42.5" y="118.93" width="235" height="321.07" as="geometry" />
        </mxCell>
        <UserObject label="&amp;lt;&amp;lt;ExecutionEnvironment&amp;gt;&amp;gt;&lt;br&gt;Docker" placeholders="1" name="Variable" id="9c9x2UA8KeOBQaB1SuDL-7">
          <mxCell style="text;html=1;strokeColor=none;fillColor=none;align=center;verticalAlign=middle;whiteSpace=wrap;overflow=hidden;" vertex="1" parent="9c9x2UA8KeOBQaB1SuDL-2">
            <mxGeometry x="82.5" y="85.25" width="165" height="33.68" as="geometry" />
          </mxCell>
        </UserObject>
        <UserObject label="&amp;lt;&amp;lt;Container&amp;gt;&amp;gt;&lt;br&gt;EventService" placeholders="1" name="Variable" id="9c9x2UA8KeOBQaB1SuDL-8">
          <mxCell style="text;html=1;strokeColor=none;fillColor=none;align=center;verticalAlign=middle;whiteSpace=wrap;overflow=hidden;" vertex="1" parent="9c9x2UA8KeOBQaB1SuDL-2">
            <mxGeometry x="82.5" y="130" width="165" height="33.68" as="geometry" />
          </mxCell>
        </UserObject>
        <mxCell id="9c9x2UA8KeOBQaB1SuDL-9" value="" style="verticalAlign=top;align=left;spacingTop=8;spacingLeft=2;spacingRight=12;shape=cube;size=10;direction=south;fontStyle=4;html=1;rounded=0;shadow=0;comic=0;labelBackgroundColor=none;strokeWidth=1;fontFamily=Verdana;fontSize=12" vertex="1" parent="9c9x2UA8KeOBQaB1SuDL-2">
          <mxGeometry x="75" y="190" width="170" height="70" as="geometry" />
        </mxCell>
        <mxCell id="9c9x2UA8KeOBQaB1SuDL-10" value="" style="verticalAlign=top;align=left;spacingTop=8;spacingLeft=2;spacingRight=12;shape=cube;size=10;direction=south;fontStyle=4;html=1;rounded=0;shadow=0;comic=0;labelBackgroundColor=none;strokeWidth=1;fontFamily=Verdana;fontSize=12" vertex="1" parent="9c9x2UA8KeOBQaB1SuDL-2">
          <mxGeometry x="75" y="270" width="170" height="140" as="geometry" />
        </mxCell>
        <UserObject label="&amp;lt;&amp;lt;Image&amp;gt;&amp;gt;&lt;br style=&quot;border-color: var(--border-color);&quot;&gt;LightweigthOS" placeholders="1" name="Variable" id="9c9x2UA8KeOBQaB1SuDL-11">
          <mxCell style="text;html=1;strokeColor=none;fillColor=none;align=center;verticalAlign=middle;whiteSpace=wrap;overflow=hidden;" vertex="1" parent="9c9x2UA8KeOBQaB1SuDL-2">
            <mxGeometry x="77.5" y="200" width="165" height="33.68" as="geometry" />
          </mxCell>
        </UserObject>
        <UserObject label="&amp;lt;&amp;lt;Image&amp;gt;&amp;gt;&lt;br style=&quot;border-color: var(--border-color);&quot;&gt;App" placeholders="1" name="Variable" id="9c9x2UA8KeOBQaB1SuDL-12">
          <mxCell style="text;html=1;strokeColor=none;fillColor=none;align=center;verticalAlign=middle;whiteSpace=wrap;overflow=hidden;" vertex="1" parent="9c9x2UA8KeOBQaB1SuDL-2">
            <mxGeometry x="75" y="280" width="165" height="33.68" as="geometry" />
          </mxCell>
        </UserObject>
        <mxCell id="9c9x2UA8KeOBQaB1SuDL-13" value="Event Service Module" style="shape=note2;boundedLbl=1;whiteSpace=wrap;html=1;size=25;verticalAlign=top;align=center;spacingLeft=5;" vertex="1" parent="9c9x2UA8KeOBQaB1SuDL-2">
          <mxGeometry x="100" y="320" width="120" height="70" as="geometry" />
        </mxCell>
        <mxCell id="9c9x2UA8KeOBQaB1SuDL-14" value="&amp;lt;&amp;lt;artifact&amp;gt;&amp;gt;" style="resizeWidth=1;part=1;strokeColor=none;fillColor=none;align=left;spacingLeft=5;html=1;whiteSpace=wrap;" vertex="1" parent="9c9x2UA8KeOBQaB1SuDL-13">
          <mxGeometry width="120" height="25" relative="1" as="geometry" />
        </mxCell>
        <mxCell id="9c9x2UA8KeOBQaB1SuDL-16" value="" style="endArrow=none;html=1;rounded=0;align=center;verticalAlign=top;endFill=0;labelBackgroundColor=none;exitX=0.843;exitY=-0.008;exitDx=0;exitDy=0;exitPerimeter=0;entryX=0.854;entryY=0.994;entryDx=0;entryDy=0;entryPerimeter=0;" edge="1" parent="1" source="WfyLc844VBMPgkh6guR3-68" target="9c9x2UA8KeOBQaB1SuDL-3">
          <mxGeometry relative="1" as="geometry">
            <mxPoint x="2040.9899999999998" y="2109.9861199999996" as="sourcePoint" />
            <mxPoint x="2220" y="1680" as="targetPoint" />
          </mxGeometry>
        </mxCell>
        <mxCell id="9c9x2UA8KeOBQaB1SuDL-17" value="&amp;lt;&amp;lt;Protocol&amp;gt;&amp;gt;&lt;br&gt;&lt;div style=&quot;text-align: center;&quot;&gt;&lt;span style=&quot;background-color: initial;&quot;&gt;HTTPS&lt;/span&gt;&lt;/div&gt;" style="resizable=0;html=1;align=right;verticalAlign=bottom;labelBackgroundColor=none;" connectable="0" vertex="1" parent="9c9x2UA8KeOBQaB1SuDL-16">
          <mxGeometry x="1" relative="1" as="geometry">
            <mxPoint x="-406" y="60" as="offset" />
          </mxGeometry>
        </mxCell>
        <mxCell id="9c9x2UA8KeOBQaB1SuDL-18" value="" style="endArrow=none;html=1;rounded=0;align=center;verticalAlign=top;endFill=0;labelBackgroundColor=none;exitX=0.5;exitY=0;exitDx=0;exitDy=0;entryX=0;entryY=0;entryDx=479.99999999999994;entryDy=170;entryPerimeter=0;" edge="1" parent="1" source="9c9x2UA8KeOBQaB1SuDL-4" target="xKT0m7g9uOmXzZgmu-4E-27">
          <mxGeometry relative="1" as="geometry">
            <mxPoint x="2040.9899999999998" y="2109.9861199999996" as="sourcePoint" />
            <mxPoint x="2220" y="1680" as="targetPoint" />
          </mxGeometry>
        </mxCell>
        <mxCell id="9c9x2UA8KeOBQaB1SuDL-19" value="&amp;lt;&amp;lt;Protocol&amp;gt;&amp;gt;&lt;br&gt;&lt;div style=&quot;text-align: center;&quot;&gt;&lt;span style=&quot;background-color: initial;&quot;&gt;HTTPS&lt;/span&gt;&lt;/div&gt;" style="resizable=0;html=1;align=right;verticalAlign=bottom;labelBackgroundColor=none;" connectable="0" vertex="1" parent="9c9x2UA8KeOBQaB1SuDL-18">
          <mxGeometry x="1" relative="1" as="geometry">
            <mxPoint x="-67" y="392" as="offset" />
          </mxGeometry>
        </mxCell>
        <mxCell id="9c9x2UA8KeOBQaB1SuDL-20" value="" style="endArrow=none;html=1;rounded=0;align=center;verticalAlign=top;endFill=0;labelBackgroundColor=none;exitX=0.003;exitY=0.146;exitDx=0;exitDy=0;entryX=0;entryY=0;entryDx=474.99999999999994;entryDy=5;entryPerimeter=0;exitPerimeter=0;" edge="1" parent="1" source="9c9x2UA8KeOBQaB1SuDL-3" target="xKT0m7g9uOmXzZgmu-4E-2">
          <mxGeometry relative="1" as="geometry">
            <mxPoint x="2515" y="2110" as="sourcePoint" />
            <mxPoint x="2380" y="1680" as="targetPoint" />
            <Array as="points">
              <mxPoint x="2610" y="1190" />
            </Array>
          </mxGeometry>
        </mxCell>
        <mxCell id="9c9x2UA8KeOBQaB1SuDL-21" value="&amp;lt;&amp;lt;Protocol&amp;gt;&amp;gt;&lt;br&gt;&lt;div style=&quot;text-align: center;&quot;&gt;&lt;span style=&quot;background-color: initial;&quot;&gt;HTTPS&lt;/span&gt;&lt;/div&gt;" style="resizable=0;html=1;align=right;verticalAlign=bottom;labelBackgroundColor=none;" connectable="0" vertex="1" parent="9c9x2UA8KeOBQaB1SuDL-20">
          <mxGeometry x="1" relative="1" as="geometry">
            <mxPoint x="115" y="85" as="offset" />
          </mxGeometry>
        </mxCell>
        <mxCell id="9c9x2UA8KeOBQaB1SuDL-23" value="" style="endArrow=none;html=1;rounded=0;align=center;verticalAlign=top;endFill=0;labelBackgroundColor=none;exitX=0;exitY=0;exitDx=283.65;exitDy=5;exitPerimeter=0;entryX=0;entryY=0;entryDx=0;entryDy=320;entryPerimeter=0;" edge="1" parent="1" source="xKT0m7g9uOmXzZgmu-4E-16" target="9c9x2UA8KeOBQaB1SuDL-3">
          <mxGeometry relative="1" as="geometry">
            <mxPoint x="1710" y="1550" as="sourcePoint" />
            <mxPoint x="1402" y="2236" as="targetPoint" />
          </mxGeometry>
        </mxCell>
        <mxCell id="9c9x2UA8KeOBQaB1SuDL-24" value="&amp;lt;&amp;lt;Protocol&amp;gt;&amp;gt;&lt;br&gt;&lt;div style=&quot;text-align: center;&quot;&gt;&lt;span style=&quot;background-color: initial;&quot;&gt;HTTPS&lt;/span&gt;&lt;/div&gt;" style="resizable=0;html=1;align=right;verticalAlign=bottom;labelBackgroundColor=none;" connectable="0" vertex="1" parent="9c9x2UA8KeOBQaB1SuDL-23">
          <mxGeometry x="1" relative="1" as="geometry">
            <mxPoint x="138" y="-339" as="offset" />
          </mxGeometry>
        </mxCell>
        <mxCell id="9c9x2UA8KeOBQaB1SuDL-25" value="1.." style="resizable=0;html=1;align=left;verticalAlign=top;labelBackgroundColor=none;" connectable="0" vertex="1" parent="1">
          <mxGeometry x="2348" y="2055.001304347826" as="geometry" />
        </mxCell>
      </root>
    </mxGraphModel>
  </diagram>
</mxfile>
